<svg viewBox="0 0 20 20" xmlns="http://www.w3.org/2000/svg"><g id="academic" fill="currentColor"><path d="m18.93 7.39v-.08a1.07 1.07 0 0 0 -.22-.31.86.86 0 0 0 -.18-.14l-8-4.73a1 1 0 0 0 -1 0l-8 4.73a1 1 0 0 0 -.53.87 1 1 0 0 0 .49.86l2.66 1.57v3.75c0 2.29 2.6 4.09 5.92 4.09s5.93-1.8 5.93-4.09v-3.83l1-.6v3.4a1 1 0 1 0 2 0v-5.15a1 1 0 0 0 -.07-.34zm-4.93 6.52c0 1-1.61 2.09-3.92 2.09s-3.92-1.1-3.92-2.09v-2.56l3.34 2a1 1 0 0 0 1 0l3.5-2.09zm-4-2.61-6-3.57 6-3.57 6 3.57z"/><path d="m18.71 15.27a1 1 0 0 0 -1.42 0 1 1 0 0 0 -.29.73 1 1 0 0 0 .08.39 1 1 0 0 0 .21.32 1 1 0 0 0 1.42 0 1 1 0 0 0 .21-.32.88.88 0 0 0 .08-.39 1 1 0 0 0 -.29-.7z"/></g></svg>
