<svg viewBox="0 0 1400 874" xmlns="http://www.w3.org/2000/svg" xmlns:xlink="http://www.w3.org/1999/xlink"><clipPath id="a"><path d="m1520.32-1072.91h1397v961h-1397z"/></clipPath><clipPath id="b"><path d="m1503.82-1686.41h1433v1569h-1433z"/></clipPath><clipPath id="c"><path d="m.5-1072.5h1400v961h-1400z"/></clipPath><clipPath id="d"><path d="m.2-1072.78h1400v2319h-1400z"/></clipPath><clipPath id="e"><path d="m-16-1075h1433v1569h-1433z"/></clipPath><clipPath id="f"><path d="m354.2 148.22h34v34h-34z"/></clipPath><clipPath id="g"><path d="m354.2 201.22h34v34h-34z"/></clipPath><clipPath id="h"><path d="m354.2 253.22h34v34h-34z"/></clipPath><clipPath id="i"><path d="m1518.5.5h1400v874h-1400z"/></clipPath><clipPath id="j"><path d="m1518.32-79.91h1397v961h-1397z"/></clipPath><clipPath id="k"><path d="m1501.82-693.41h1433v1569h-1433z"/></clipPath><clipPath id="l"><path d="m0 0h1400v874h-1400z"/></clipPath><clipPath id="m"><path d="m.5-86.5h1400v961h-1400z"/></clipPath><clipPath id="n"><path d="m.2-86.78h1400v2319h-1400z"/></clipPath><clipPath id="o"><path d="m-16-89h1433v1569h-1433z"/></clipPath><g clip-path="url(#a)"><g clip-path="url(#b)"><path d="m1818.7-986c27.62-37.71 78.52-46.23 113.49-18.93 49.53 38.57 58.32 128 108 166.2 47.56 36.6 109.43 10.73 162.7-11.44s121-35.73 158.56 15.31c31.42 42.75 24.14 108.7 40.14 162.5 14.17 47.56 48.29 85.74 88.57 98.92 44.48 14.59 91.38-.25 137.3-5.3s99 4.11 125 50.25c20.92 37.08 17.71 86.54 30.63 128.66 22.63 73.76 88.5 111.23 147.8 143.33 28.87 15.62 59.5 33.85 74.33 67.69 28.73 65.31-16.34 140.88-58.39 194.52-25.29 32.29-51.83 65.58-86.37 80.73-66.06 29.11-137.37-15.86-207.5-22-93.09-8.2-179.62 52.22-262.08 105.31s-177.19 101.84-266.61 69.42c-58.38-21.22-104.63-73.83-152.92-119s-106.35-85.48-166.76-75.17c-51.43 8.75-101.35 53.56-150.75 34.23-40-15.7-61.14-66.73-84.5-109.09-42.23-76.26-103-135-174.11-168-58.78-27.14-131.33-43.78-157.71-113-16.33-42.84-8.79-93.55-19.54-138.92-28.48-119.3-168.34-158.66-195.43-278.22-12.34-54.35 3.41-114.3 33.39-157.37s72.49-71 116.57-88.82c139.87-56.56 293-18.46 434.62 31.24 38.31 13.41 77.47 27.85 117.23 24.14s61.6-37.63 94.07-66.19" fill="#b2b2a7"/></g></g><g clip-path="url(#c)"><g clip-path="url(#d)"><path d="m.2-1072.78h1400v2319h-1400z" fill="#fff"/><g clip-path="url(#e)"><path d="m-16.07-1916h1432.86v2475.65h-1432.86z" fill="#eff8f6"/><path d="m-86.63-816.71c31.41-35.65 89.29-43.71 129-17.9 56.32 36.48 66.32 121.06 122.78 157.17 54.08 34.61 124.42 10.14 185-10.82s137.66-33.74 180.32 14.47c35.73 40.43 27.45 102.79 45.65 153.66 16.12 45 54.9 81.08 100.7 93.54 50.58 13.8 103.91-.22 156.13-5s112.56 3.88 142.1 47.52c23.79 35.06 20.14 81.83 34.83 121.66 25.74 69.74 100.63 105.17 168.06 135.53 32.82 14.77 67.65 32 84.51 64 32.67 61.77-18.57 133.23-66.39 184-28.71 30.5-58.92 62-98.16 76.3-75.11 27.52-156.2-15-235.94-20.81-105.84-7.75-204.23 49.38-298 99.58s-201.48 96.3-303.15 65.65c-66.37-20.12-118.97-69.84-173.81-112.54s-121-80.86-189.62-71.16c-58.48 8.28-115.24 50.65-171.41 32.37-45.5-14.84-69.52-63.1-96.08-103.16-47.71-71.83-117.89-128.15-198.02-158.88-66.87-25.66-149.33-41.4-179.32-106.89-18.57-40.5-10-88.47-22.23-131.36-32.37-112.7-191.4-149.93-222.21-263-14-51.39 3.88-108.08 38-148.81s82.43-67.13 132.55-84c159-53.48 333.13-17.46 494.18 29.54 43.56 12.68 88.09 26.33 133.3 22.82s70-35.58 107-62.58" fill="#e2efeb"/><g fill="none" stroke="#18514f" stroke-miterlimit="10" stroke-width="4.09"><path d="m708.55 124.84c0 29.71 22.53 53.76 50.37 53.76s50.36-24 50.36-53.76" opacity=".8"/><path d="m304.77 124.84c0 29.71 22.53 53.76 50.37 53.76s50.36-24 50.36-53.76" opacity=".8"/><path d="m103.32 124.84c0 29.71 22.52 53.76 50.36 53.76s50.36-24 50.36-53.76" opacity=".8"/><path d="m405.5 47.97v72.89" opacity=".8"/><path d="m103.35-22v142.96" opacity=".8"/><path d="m708.55 47.97v72.89" opacity=".8"/><path d="m506.92 124.84c0 29.71 22.53 53.76 50.36 53.76s50.37-24 50.37-53.76" opacity=".8"/><path d="m607.83 47.97v72.89" opacity=".8"/><path d="m708.55 43.88c0-29.71-22.52-53.76-50.36-53.76s-50.36 24.05-50.36 53.76" opacity=".8"/><path d="m809.44 47.97v72.89" opacity=".8"/><path d="m910.16 43.88c0-29.71-22.53-53.76-50.36-53.76s-50.37 24.05-50.37 53.76" opacity=".8"/><path d="m910.16 124.84c0 29.71 22.53 53.76 50.37 53.76s50.36-24 50.36-53.76" opacity=".8"/><path d="m910.16 47.97v72.89" opacity=".8"/><path d="m1011.04 47.97v72.89" opacity=".8"/><path d="m1111.77 43.88c0-29.71-22.53-53.76-50.36-53.76s-50.41 24.05-50.41 53.76" opacity=".8"/><path d="m1111.77 124.84c0 29.71 22.53 53.76 50.36 53.76s50.37-24 50.37-53.76" opacity=".8"/><path d="m1111.77 47.97v72.89" opacity=".8"/><path d="m1212.65 47.97v72.89" opacity=".8"/><path d="m1313.38 47.97v115.95" opacity=".8"/><path d="m1313.38 43.88c0-29.71-22.53-53.76-50.37-53.76s-50.36 24.05-50.36 53.76" opacity=".8"/><path d="m506.92 47.97v72.89" opacity=".8"/><path d="m506.22 43.88c0-29.71-22.52-53.76-50.36-53.76s-50.36 24.05-50.36 53.76" opacity=".8"/></g><circle cx="519.04" cy="160.78" fill="#face00" opacity=".8" r="14.28"/><circle cx="1313.38" cy="163.3" fill="#18514f" opacity=".8" r="14.28"/><g fill="none" stroke="#18514f" stroke-miterlimit="10" stroke-width="4.09"><path d="m304.77 46.63c0-29.72-22.52-53.76-50.36-53.76s-50.36 24-50.36 53.76" opacity=".8"/><path d="m304.77 50.72v70.23" opacity=".8"/><path d="m204.05 50.72v70.23" opacity=".8"/></g><circle cx="216.29" cy="12.84" fill="#ff621a" opacity=".8" r="14.28"/></g><g fill="none" stroke="#b2b2a7"><path d="m147.2 191.72h241" opacity=".3"/><path d="m147.2 243.72h241" opacity=".3"/><path d="m147.2 294.72h241" opacity=".3"/></g><text fill="#203131" font-family="NotoSerif" font-size="16" transform="translate(147.2 171.22)"><tspan letter-spacing="-.07em">T</tspan><tspan letter-spacing="0em" x="6.82" y="0">echnology &amp; pl</tspan><tspan letter-spacing="0em" x="106.93" y="0">a</tspan><tspan x="114.57" y="0">t</tspan><tspan letter-spacing="-.01em" x="119.87" y="0">f</tspan><tspan letter-spacing="0em" x="124.33" y="0">o</tspan><tspan letter-spacing="0em" x="133.12" y="0">r</tspan><tspan letter-spacing="0em" x="138.41" y="0">ms</tspan></text><rect fill="none" height="18" rx="3" width="18" x="120.2" y="155.22"/><rect fill="none" height="17" rx="2.5" stroke="#585850" width="17" x="120.7" y="155.72"/><text fill="#203131" font-family="NotoSerif" font-size="16" transform="translate(147.2 225.22)">L<tspan letter-spacing="-.01em" x="7.55" y="0">a</tspan><tspan x="15.14" y="0">w &amp; poli</tspan><tspan letter-spacing=".02em" x="68.78" y="0">c</tspan><tspan x="76.24" y="0">y</tspan></text><rect fill="none" height="18" rx="3" width="18" x="120.2" y="209.22"/><rect fill="none" height="17" rx="2.5" stroke="#585850" width="17" x="120.7" y="209.72"/><text fill="#203131" font-family="NotoSerif" font-size="16" transform="translate(147.2 274.22)"><tspan letter-spacing="-.04em">F</tspan><tspan x="7.07" y="0">air labor</tspan></text><text fill="#203131" font-family="NotoSerif" font-size="16" transform="translate(147.2 325.22)"><tspan letter-spacing="0em">P</tspan><tspan x="8.43" y="0">l</tspan><tspan letter-spacing="0em" x="12.21" y="0">a</tspan><tspan x="19.86" y="0">t</tspan><tspan letter-spacing="-.01em" x="25.15" y="0">f</tspan><tspan x="29.62" y="0">o</tspan><tspan letter-spacing="0em" x="38.4" y="0">r</tspan><tspan x="43.7" y="0">m</tspan><tspan letter-spacing="-.01em" x="60.43" y="0">c</tspan><tspan letter-spacing="0em" x="67.5" y="0">oop theo</tspan><tspan letter-spacing=".02em" x="128.54" y="0">r</tspan><tspan x="134.17" y="0">y</tspan></text><g fill="none"><rect height="18" rx="3" width="18" x="120.2" y="258.22"/><rect height="17" rx="2.5" stroke="#585850" width="17" x="120.7" y="258.72"/><rect height="18" rx="3" width="18" x="120.2" y="309.22"/><rect height="17" rx="2.5" stroke="#585850" width="17" x="120.7" y="309.72"/></g><text fill="#16605d" font-family="NotoSans-Bold, Noto Sans" font-size="20" font-weight="700" transform="translate(120.2 405.72)">Format</text><path d="m120.2 375.22h268.5" fill="none" stroke="#16605d" stroke-width="3"/><path d="m386.75 396a1.39 1.39 0 0 1 1.84.13 1.48 1.48 0 0 1 .13 1.89l-5.63 5.78a1.39 1.39 0 0 1 -2 0l-5.61-5.8a1.48 1.48 0 0 1 .13-1.89 1.39 1.39 0 0 1 1.84-.13l4.65 4.75 4.65-4.76z" fill="#16605d" fill-rule="evenodd"/><text fill="#16605d" font-family="NotoSans-Bold, Noto Sans" font-size="20" font-weight="700" transform="translate(120.2 474.72)">Sector</text><path d="m120.2 444.22h268.5" fill="none" stroke="#16605d" stroke-width="3"/><path d="m386.75 465a1.39 1.39 0 0 1 1.84.13 1.48 1.48 0 0 1 .13 1.89l-5.63 5.78a1.39 1.39 0 0 1 -2 0l-5.61-5.8a1.48 1.48 0 0 1 .13-1.89 1.39 1.39 0 0 1 1.84-.13l4.65 4.75 4.65-4.76z" fill="#16605d" fill-rule="evenodd"/><g clip-path="url(#f)"><circle cx="371.2" cy="165.22" fill="#e3eae8" r="17"/><path d="m374.4 162.42a1 1 0 0 1 1.4.2 1 1 0 0 1 0 1.2l-4 4a1 1 0 0 1 -1.4 0l-4-4a1 1 0 0 1 .2-1.4 1 1 0 0 1 1.2 0l3.3 3.29 3.3-3.3z" fill="#16605d" fill-rule="evenodd"/></g><g clip-path="url(#g)"><circle cx="371.2" cy="218.22" fill="#e3eae8" r="17"/><path d="m374.4 215.42a1 1 0 0 1 1.4.2 1 1 0 0 1 0 1.2l-4 4a1 1 0 0 1 -1.4 0l-4-4a1 1 0 0 1 .2-1.4 1 1 0 0 1 1.2 0l3.3 3.29 3.3-3.3z" fill="#16605d" fill-rule="evenodd"/></g><g clip-path="url(#h)"><circle cx="371.2" cy="270.22" fill="#e3eae8" r="17"/><path d="m374.4 267.42a1 1 0 0 1 1.4.2 1 1 0 0 1 0 1.2l-4 4a1 1 0 0 1 -1.4 0l-4-4a1 1 0 0 1 .2-1.4 1 1 0 0 1 1.2 0l3.3 3.29 3.3-3.3z" fill="#16605d" fill-rule="evenodd"/></g></g></g><g clip-path="url(#i)"><g clip-path="url(#j)"><g clip-path="url(#k)"><path d="m1816.7 7c27.62-37.71 78.52-46.23 113.49-18.93 49.53 38.57 58.32 128 108 166.2 47.56 36.6 109.43 10.73 162.7-11.44s121-35.73 158.56 15.31c31.42 42.75 24.14 108.7 40.14 162.5 14.17 47.56 48.29 85.74 88.57 98.92 44.48 14.59 91.38-.25 137.3-5.3s99 4.11 125 50.25c20.92 37.08 17.71 86.54 30.63 128.66 22.63 73.76 88.5 111.23 147.8 143.33 28.87 15.62 59.5 33.85 74.33 67.69 28.73 65.31-16.34 140.88-58.39 194.52-25.25 32.26-51.82 65.55-86.33 80.7-66.06 29.11-137.37-15.86-207.5-22-93.09-8.2-179.62 52.22-262.08 105.31s-177.19 101.84-266.61 69.42c-58.38-21.22-104.63-73.83-152.92-119s-106.39-85.45-166.8-75.14c-51.43 8.75-101.35 53.56-150.75 34.23-40-15.7-61.14-66.73-84.5-109.09-42.23-76.26-103-135-174.11-168-58.78-27.14-131.33-43.78-157.71-113-16.33-42.84-8.79-93.55-19.54-138.92-28.48-119.3-168.34-158.66-195.43-278.22-12.34-54.35 3.41-114.3 33.39-157.37s72.49-71 116.57-88.82c139.87-56.59 292.98-18.49 434.62 31.19 38.31 13.41 77.47 27.85 117.23 24.14s61.64-37.61 94.07-66.14" fill="#b2b2a7"/><path d="m1401.7-689.91c-13.7 21.29-24.57 45.42-19.26 69 6.72 30.23 38.27 53.72 45.69 83.8 7.95 32-12.82 63.73-34 91.55-74.11 97.37-162.3 187.36-262.74 268.09-31.55 25.33-67.17 60.32-48.26 92.89 15.38 26.54 59.13 33.85 80.6 57.41 34.73 38.1-5 93 9.46 138.94 12.72 40.45 66.72 65.07 118.25 67.49s101.56-12.26 150.47-25.64 100.49-25.83 151.4-18.81c102 14.05 169.5 100.77 270.78 117.94 35.27 6 72 2.84 107.29-3.33 73.09-12.85 143.79-39.67 195.67-83.24s83.17-105 74.5-165.06c-9.37-64.43-62.22-126.45-42.16-189.19 10.08-31.58 37.39-57.26 57.89-85.29 33.32-45.42 47.46-107.73 6-148.6-28.19-27.75-69.38-67.77-79.18-92.75-11.14-28.52 19.18-112.47-4.78-145.4-4.95-6.81-126-36.9-136.54-46.55-52.76-48.4-17.14-107.86-83.25-143.91-47.72-26-110.12-23.2-167.47-19.37-103.94 7-167.3 5.25-248.69 59.53" fill="#face00"/><g fill="none" stroke="#294040" stroke-miterlimit="10"><circle cx="1275.52" cy="96.78" r="184.31" stroke-width=".33"/><g stroke-linecap="square"><circle cx="1275.52" cy="96.78" r="148.76" stroke-width="1.32"/><path d="m1275.38 82.3a14.48 14.48 0 1 1 -14.38 14.62 14.48 14.48 0 0 1 14.35-14.62z" stroke-width="4.61"/><circle cx="1275.52" cy="96.78" r="42.13" stroke-width="3.95"/><circle cx="1275.52" cy="96.78" r="77.67" stroke-width="3.29"/><circle cx="1275.52" cy="96.78" r="113.22" stroke-width="1.97"/></g></g></g></g></g><g clip-path="url(#l)"><g clip-path="url(#m)"><g clip-path="url(#n)"><path d="m.2-86.78h1400v2319h-1400z" fill="#fff"/><g clip-path="url(#o)"><path d="m-16.07-930h1432.86v2475.65h-1432.86z" fill="#eff8f6"/><path d="m-86.63 169.29c31.41-35.65 89.29-43.71 129-17.9 56.32 36.48 66.32 121.06 122.78 157.17 54.08 34.61 124.42 10.14 185-10.82s137.66-33.74 180.32 14.47c35.73 40.43 27.45 102.79 45.65 153.66 16.12 45 54.9 81.08 100.7 93.54 50.58 13.8 103.91-.22 156.13-5s112.56 3.88 142.1 47.52c23.79 35.06 20.14 81.83 34.83 121.66 25.74 69.74 100.63 105.17 168.06 135.53 32.82 14.77 67.65 32 84.51 64 32.67 61.77-18.57 133.23-66.39 183.95-28.71 30.5-58.92 62-98.16 76.3-75.11 27.52-156.2-15-235.94-20.81-105.84-7.75-204.23 49.38-298 99.58s-201.48 96.3-303.15 65.65c-66.37-20.07-118.97-69.79-173.81-112.49s-121-80.86-189.62-71.16c-58.48 8.28-115.24 50.65-171.41 32.37-45.5-14.84-69.52-63.1-96.08-103.16-47.66-71.83-117.85-128.15-198-158.88-66.83-25.66-149.33-41.4-179.32-106.89-18.57-40.5-10-88.47-22.23-131.36-32.37-112.7-191.4-149.93-222.21-263-14-51.39 3.88-108.08 38-148.81s82.43-67.13 132.55-84c159-53.48 333.13-17.46 494.18 29.54 43.56 12.68 88.09 26.33 133.3 22.82s70-35.58 107-62.58" fill="#e2efeb"/><path d="m951.75-871.14c31.41-35.65 89.29-43.71 129-17.9 56.31 36.48 66.31 121.07 122.78 157.17 54.08 34.61 124.42 10.14 185-10.82s137.62-33.79 180.29 14.47c35.73 40.43 27.45 102.79 45.65 153.66 16.11 45 54.9 81.08 100.7 93.54 50.57 13.8 103.9-.22 156.12-5s112.56 3.88 142.1 47.52c23.79 35.06 20.14 81.83 34.83 121.66 25.78 69.74 100.67 105.18 168.1 135.54 32.82 14.76 67.66 32 84.51 64 32.68 61.76-18.57 133.22-66.38 183.94-28.72 30.51-58.93 62-98.17 76.31-75.11 27.52-156.19-15-235.93-20.82-105.85-7.75-204.24 49.38-298 99.59s-201.48 96.3-303.14 65.64c-66.39-20.07-119-69.82-173.88-112.49s-121-80.86-189.61-71.16c-58.49 8.29-115.25 50.65-171.42 32.37-45.5-14.84-69.52-63.08-96.07-103.16-47.67-71.83-117.86-128.15-197.97-158.92-66.84-25.66-149.34-41.4-179.32-106.89-18.58-40.5-10-88.47-22.23-131.36-32.38-112.66-191.41-149.89-222.21-262.97-14-51.39 3.87-108.08 38-148.81s82.39-67.13 132.5-83.97c159-53.48 333.14-17.46 494.18 29.54 43.56 12.68 88.09 26.33 133.3 22.82s70-35.58 107-62.58" fill="#e2efeb"/><g stroke="#18514f" stroke-miterlimit="10"><g fill="none"><path d="m1259.39 915.58a53.73 53.73 0 0 0 53.75-53.7v-.06a53.73 53.73 0 0 0 -53.69-53.76h-.06" opacity=".8" stroke-width="4.09"/><path d="m1187.84 655.13c0 29.72 22 53.76 49.24 53.76s49.25-24 49.25-53.76" opacity=".8" stroke-width="4.09"/><path d="m596.94 655.13c0 29.72 22 53.76 49.24 53.76s49.25-24 49.25-53.76" opacity=".8" stroke-width="4.09"/><path d="m104.15 622.03v118.68" opacity=".8" stroke-width="4.09"/><path d="m1286.33 579.07v71.53" opacity=".8" stroke-width="4.09"/><path d="m794.11 622.44v28.71" opacity=".8" stroke-width="4.09"/><path d="m695.53 622.44v28.71" opacity=".8" stroke-width="4.09"/><path d="m399.76 655.13c0 29.72 22 53.76 49.25 53.76s49.25-24 49.25-53.76" opacity=".8" stroke-width="4.09"/><path d="m498.35 622.44v28.71" opacity=".8" stroke-width="4.09"/><path d="m202.59 655.13c0 29.72 22 53.76 49.25 53.76s49.25-24 49.25-53.76" opacity=".8" stroke-width="4.09"/><path d="m301.18 622.44v28.71" opacity=".8" stroke-width="4.09"/><path d="m794.11 618.65c0-29.72-22-53.76-49.25-53.76s-49.24 24-49.24 53.76" opacity=".8" stroke-width="4.09"/><path d="m793.91 655.13c0 29.72 22 53.76 49.25 53.76s49.25-24 49.25-53.76" opacity=".8" stroke-width="4.09"/><path d="m892.5 622.44v28.71" opacity=".8" stroke-width="4.09"/><path d="m991.09 618.65c0-29.72-22-53.76-49.25-53.76s-49.25 24-49.25 53.76" opacity=".8" stroke-width="4.09"/><path d="m990.88 655.13c0 29.72 22 53.76 49.25 53.76s49.25-24 49.25-53.76" opacity=".8" stroke-width="4.09"/><path d="m1089.47 622.44v28.71" opacity=".8" stroke-width="4.09"/><path d="m990.98 622.44v28.71" opacity=".8" stroke-width="4.09"/><path d="m1188.06 622.44v28.71" opacity=".8" stroke-width="4.09"/><path d="m1188.06 618.65c0-29.72-22-53.76-49.25-53.76s-49.25 24-49.25 53.76" opacity=".8" stroke-width="4.09"/><path d="m596.94 622.44v28.71" opacity=".8" stroke-width="4.09"/><path d="m596.94 618.65c0-29.72-22-53.76-49.25-53.76s-49.25 24-49.25 53.76" opacity=".8" stroke-width="4.09"/><path d="m399.76 622.44v28.71" opacity=".8" stroke-width="4.09"/><path d="m399.76 618.65c0-29.72-22-53.76-49.25-53.76s-49.24 24-49.24 53.76" opacity=".8" stroke-width="4.09"/><path d="m202.64 622.44v28.71" opacity=".8" stroke-width="4.09"/><path d="m202.64 618.65c0-29.72-22-53.76-49.25-53.76s-49.24 24-49.24 53.76" opacity=".8" stroke-width="4.09"/></g><circle cx="140.85" cy="801.94" fill="#face00" r="44.5" stroke-dasharray="7.36 7.36" stroke-width="4.08"/><circle cx="141.12" cy="802.21" fill="none" opacity=".8" r="27.76" stroke-dasharray="7.26 7.26" stroke-width="4.08"/></g><circle cx="140.71" cy="801.81" fill="#18514f" opacity=".8" r="13.75"/><circle cx="952.85" cy="915.94" fill="#face00" r="44.5" stroke="#18514f" stroke-dasharray="7.36 7.36" stroke-miterlimit="10" stroke-width="4.08"/><path d="m170.49 808.06c-36.67 0-66.34-28.35-66.34-63.4" fill="none" opacity=".8" stroke="#18514f" stroke-miterlimit="10" stroke-width="4.09"/><path d="m103.12 268.63a48.79 48.79 0 0 1 48.93-48.63h.06" fill="none" opacity=".8" stroke="#18514f" stroke-miterlimit="10" stroke-width="4.09"/><path d="m152.11 316.77a48.8 48.8 0 0 1 -49-48.6v-.05" fill="none" opacity=".8" stroke="#18514f" stroke-miterlimit="10" stroke-width="4.09"/><circle cx="1242.85" cy="413.94" fill="#face00" r="44.5" stroke="#18514f" stroke-dasharray="7.36 7.36" stroke-miterlimit="10" stroke-width="4.08"/><circle cx="1243.12" cy="414.21" r="27.76" style="fill:none;stroke:#18514f;stroke-miterlimit:10;opacity:.8;stroke-width:4.08;stroke-dasharray:7.26 7.26"/><circle cx="1242.71" cy="413.81" fill="#18514f" opacity=".8" r="13.75"/><path d="m1242.37 316.77c26.18 0 47.37 21.76 47.37 48.65v-.12c0 26.9-21.19 48.65-47.37 48.65" fill="none" opacity=".8" stroke="#18514f" stroke-miterlimit="10" stroke-width="4.09"/><path d="m1193.17 219.98h-1035.2" fill="none" opacity=".8" stroke="#18514f" stroke-miterlimit="10" stroke-width="4.09"/><path d="m1255.57 808.06h-1080.32" fill="none" opacity=".8" stroke="#18514f" stroke-miterlimit="10" stroke-width="4.09"/><path d="m1238.3 316.77h-1084.42" style="fill:none;stroke:#18514f;stroke-miterlimit:10;stroke-width:4.09;opacity:.8;stroke-dasharray:7.16 5.12"/><path d="m1231.69 413.95h-1072.7" fill="none" opacity=".8" stroke="#18514f" stroke-miterlimit="10" stroke-width="4.09"/><path d="m1217.72 510.99h-1059.75" fill="none" opacity=".8" stroke="#18514f" stroke-miterlimit="10" stroke-width="4.09"/><path d="m152.11 511a48.79 48.79 0 0 1 -49-48.59v.21a48.81 48.81 0 0 1 48.94-48.62h.06" style="fill:none;stroke:#18514f;stroke-miterlimit:10;stroke-width:4.09;opacity:.8;stroke-dasharray:7.16 5.12"/><path d="m1222.93 511a63.36 63.36 0 0 1 63.4 63.33v.07" fill="none" opacity=".8" stroke="#18514f" stroke-miterlimit="10" stroke-width="4.09"/><circle cx="1110.34" cy="220.22" fill="#face00" opacity=".8" r="14.28"/><circle cx="379.89" cy="575.21" fill="#18514f" opacity=".8" r="14.28"/><ellipse cx="952.81" cy="510.83" fill="#face00" opacity=".8" rx="14.94" ry="14.28"/><ellipse cx="1058.19" cy="705.21" fill="#18514f" opacity=".8" rx="14.94" ry="14.28"/><circle cx="198.08" cy="414.1" fill="#ff621a" opacity=".8" r="14.28"/><circle cx="104.19" cy="127.46" fill="#18514f" opacity=".8" r="14.28"/><g stroke="#18514f" stroke-miterlimit="10"><path d="m1286.72 131.71a88.28 88.28 0 0 1 -88.24 88.29h-.1" fill="none" opacity=".8" stroke-dasharray="7.16 5.12" stroke-width="4.09"/><path d="m641.61 80.21a53.73 53.73 0 0 0 53.7 53.79h.06a53.74 53.74 0 0 0 53.76-53.7v-.07" fill="none" opacity=".8" stroke-dasharray="7.16 5.12" stroke-width="4.09"/><path d="m211.73 80.21a53.73 53.73 0 0 0 53.7 53.79h.06a53.74 53.74 0 0 0 53.77-53.7v-.07" fill="none" opacity=".8" stroke-dasharray="7.16 5.12" stroke-width="4.09"/><path d="m211.73 1.45v72.9" fill="none" opacity=".8" stroke-width="4.09"/><path d="m641.61 1.45v72.9" fill="none" opacity=".8" stroke-width="4.09"/><path d="m104.15 1.45v126.58" fill="none" opacity=".8" stroke-width="4.09"/><path d="m1286.88 1.45v126.58" fill="none" opacity=".8" stroke-width="4.09"/><circle cx="445.85" cy="120.94" fill="#face00" r="44.5" stroke-dasharray="7.36 7.36" stroke-width="4.08"/><circle cx="446.12" cy="121.21" fill="none" opacity=".8" r="27.76" stroke-dasharray="7.26 7.26" stroke-width="4.08"/></g><circle cx="445.71" cy="120.81" fill="#18514f" opacity=".8" r="13.75"/><path d="m426.67 80.21a53.73 53.73 0 0 0 53.7 53.79h.06a53.73 53.73 0 0 0 53.76-53.71v-.06" fill="none" opacity=".8" stroke="#18514f" stroke-miterlimit="10" stroke-width="4.09"/><path d="m426.67 1.45v72.9" fill="none" opacity=".8" stroke="#18514f" stroke-miterlimit="10" stroke-width="4.09"/><path d="m319.31 1.45v72.9" fill="none" opacity=".8" stroke="#18514f" stroke-miterlimit="10" stroke-width="4.09"/><path d="m749.42 1.45v72.9" fill="none" opacity=".8" stroke="#18514f" stroke-miterlimit="10" stroke-width="4.09"/><path d="m856.77 80.21a53.74 53.74 0 0 0 53.7 53.79h.07a53.74 53.74 0 0 0 53.76-53.73v-.06" fill="none" opacity=".8" stroke="#18514f" stroke-miterlimit="10" stroke-width="4.09"/><path d="m856.77 1.45v72.9" fill="none" opacity=".8" stroke="#18514f" stroke-miterlimit="10" stroke-width="4.09"/><circle cx="1071.85" cy="-12.06" fill="#face00" r="44.5" stroke="#18514f" stroke-dasharray="7.36 7.36" stroke-miterlimit="10" stroke-width="4.08"/><circle cx="1072.12" cy="-11.79" r="27.76" style="fill:none;stroke:#18514f;stroke-miterlimit:10;opacity:.8;stroke-width:4.08;stroke-dasharray:7.26 7.26"/><circle cx="1071.71" cy="-12.19" fill="#18514f" opacity=".8" r="13.75"/><path d="m964.3 1.45v72.9" fill="none" opacity=".8" stroke="#18514f" stroke-miterlimit="10" stroke-width="4.09"/><path d="m1071.83 80.21a53.74 53.74 0 0 0 53.7 53.77h.06a53.74 53.74 0 0 0 53.76-53.71v-.06" fill="none" opacity=".8" stroke="#18514f" stroke-miterlimit="10" stroke-width="4.09"/><path d="m1071.82 1.45v78.89" style="fill:none;stroke:#18514f;stroke-miterlimit:10;stroke-width:4.09;opacity:.8;stroke-dasharray:7.16 5.12"/><path d="m1179.35 1.45v72.9" fill="none" opacity=".8" stroke="#18514f" stroke-miterlimit="10" stroke-width="4.09"/><path d="m534.25 1.45.2 78.89" style="fill:none;stroke:#18514f;stroke-miterlimit:10;stroke-width:4.09;opacity:.8;stroke-dasharray:7.16 5.12"/><circle cx="856.68" cy="80.66" fill="#ff621a" opacity=".8" r="14.28"/><circle cx="607.38" cy="316.37" fill="#18514f" opacity=".8" r="14.28"/><path d="m-24.25-11h1432.25v642h-1432.25z" fill="none"/></g><path d="m-15.8-17.78h1432.25v642h-1432.25z" fill="none"/></g></g></g></svg>