<svg viewBox="0 0 20 20" xmlns="http://www.w3.org/2000/svg"><g id="audio" fill="currentColor"><path d="m9.5 3.24a1.71 1.71 0 0 0 -1.71 0l-3 2.51h-2a1.83 1.83 0 0 0 -1.79 1.86v4.78a1.83 1.83 0 0 0 1.79 1.88h2l2.81 2.4.16.11a1.67 1.67 0 0 0 .84.22 1.7 1.7 0 0 0 .87-.24 1.89 1.89 0 0 0 .92-1.64v-10.24a1.89 1.89 0 0 0 -.89-1.64zm-1.08 11.47-2.86-2.44h-2.56v-4.54h2.55l2.87-2.44z"/><path d="m14.4 7.74a1 1 0 0 0 -1.73 1 2.57 2.57 0 0 1 0 2.52 1 1 0 0 0 .33 1.36.93.93 0 0 0 .5.14 1 1 0 0 0 .87-.49 4.56 4.56 0 0 0 .63-2.27 4.49 4.49 0 0 0 -.6-2.26z"/><path d="m16.19 3.27a1 1 0 0 0 -1.41 0 1 1 0 0 0 0 1.42 7.19 7.19 0 0 1 2.22 5.31 7.19 7.19 0 0 1 -2.18 5.27 1 1 0 0 0 0 1.42 1 1 0 0 0 .73.31 1 1 0 0 0 .68-.27 9.21 9.21 0 0 0 2.77-6.73 9.21 9.21 0 0 0 -2.81-6.73z"/></g></svg>
