<svg xmlns="http://www.w3.org/2000/svg" viewBox="0 0 40 40"><g id="browse" fill="currentColor"><path d="M20,2A18,18,0,1,0,38,20,18,18,0,0,0,20,2Zm1,33.73V34a1,1,0,0,0-2,0v1.73A15.78,15.78,0,0,1,4.27,21H6a1,1,0,0,0,0-2H4.27A15.78,15.78,0,0,1,19,4.27V6a1,1,0,0,0,2,0V4.27A15.78,15.78,0,0,1,35.73,19H34a1,1,0,0,0,0,2h1.73A15.78,15.78,0,0,1,21,35.73Z"/><path d="M24.45,16.55a1,1,0,0,0-.5-.5l-12-5.46a1,1,0,0,0-1.12.2,1,1,0,0,0-.21,1.12l5.45,12a1,1,0,0,0,.5.49l12.06,5.49A1,1,0,0,0,29,30a1,1,0,0,0,.91-1.41ZM17.7,22.76l-4.2-9.25,9.28,4.21L27,27Z"/><circle cx="20" cy="20" r="1.25"/></g></svg>