<svg viewBox="0 0 20 20" xmlns="http://www.w3.org/2000/svg"><path d="m18.11 7.28a1.2 1.2 0 0 0 -.11-.42 1 1 0 0 0 -.36-.47l-.1-.1a4.22 4.22 0 0 0 -4.52-.14 5.48 5.48 0 0 0 -1.35 1v-.82a.5.5 0 0 0 0-.13 4.69 4.69 0 0 0 -.67-2.95 4.17 4.17 0 0 0 -3.8-2.25 1 1 0 0 0 -.45.11 1 1 0 0 0 -.42.37l-.09.11a4.13 4.13 0 0 0 .12 4.41 4.27 4.27 0 0 0 3.35 2.26v1.65a6.12 6.12 0 0 0 -2.96-1.91 5.19 5.19 0 0 0 -5.34 1.12v.06a1 1 0 0 0 -.27.4 1 1 0 0 0 -.05.57v.18a5.2 5.2 0 0 0 3.86 3.84 6.26 6.26 0 0 0 1.84.27 4.87 4.87 0 0 0 3-.92v2.1l-.35.1a6.54 6.54 0 0 1 -2.24.28 1 1 0 1 0 0 2 8 8 0 0 0 2.73-.37 4.74 4.74 0 0 1 1.61-.23 2.4 2.4 0 0 1 1.34.36 1 1 0 0 0 .65.24 1 1 0 0 0 .76-.35 1 1 0 0 0 -.11-1.41 4.24 4.24 0 0 0 -2.47-.83v-4.09a3.86 3.86 0 0 0 1.6.34 5.07 5.07 0 0 0 2.29-.57 4.22 4.22 0 0 0 2.51-3.76zm-12.63 5a3.49 3.49 0 0 1 -2.41-2 3.43 3.43 0 0 1 3.11-.38 3.46 3.46 0 0 1 2.4 2 3.48 3.48 0 0 1 -3.1.36zm2.6-7.28a2.68 2.68 0 0 1 -.38-2 2.55 2.55 0 0 1 1.58 1.28 2.6 2.6 0 0 1 .37 2 2.53 2.53 0 0 1 -1.57-1.28zm6.6 4.32a2.64 2.64 0 0 1 -2.12.23 2.59 2.59 0 0 1 1.44-1.62 2.6 2.6 0 0 1 2.12-.23 2.56 2.56 0 0 1 -1.44 1.61z" fill="currentColor" id="community-builder" /></svg>
