<svg viewBox="0 0 20 20" xmlns="http://www.w3.org/2000/svg"><g id="converting" fill="currentColor"><path d="m9.55 16a6 6 0 0 1 -4-1.52 1 1 0 0 1 1.33-1.48 4 4 0 1 0 -.17-5.85 1 1 0 0 1 -1.42 0 1 1 0 0 1 0-1.41 6 6 0 1 1 4.26 10.26z"/><path d="m12.89 16a6 6 0 1 1 6-6 6 6 0 0 1 -6 6zm0-10a4 4 0 1 0 4 4 4 4 0 0 0 -4-4z"/><path d="m2.54 13.75a1 1 0 0 1 -.71-1.75l1.76-1.76-1.76-1.71a1 1 0 0 1 0-1.42 1 1 0 0 1 1.41 0l2.47 2.47a1 1 0 0 1 .29.7 1 1 0 0 1 -.29.71l-2.47 2.47a1 1 0 0 1 -.7.29z"/><path d="m5 11.28h-3a1 1 0 0 1 0-2h3a1 1 0 0 1 0 2z"/></g></svg>
