<svg viewBox="0 0 20 20" xmlns="http://www.w3.org/2000/svg"><path id="coop-type" d="m16 7.23c0-.12 0-.23 0-.35a5.95 5.95 0 1 0 -11.89 0v.29a5.94 5.94 0 1 0 5.89 10.32 5.89 5.89 0 0 0 3.06.85 5.94 5.94 0 0 0 2.94-11.11zm-3.61 2.77a5.8 5.8 0 0 0 -.77-1.29 3.81 3.81 0 0 1 1.44-.28 5.48 5.48 0 0 1 .57 0 3.92 3.92 0 0 1 -1.24 1.57zm-2.39 4.86a3.85 3.85 0 0 1 -.85-2.11 6.56 6.56 0 0 0 .9.07 5.29 5.29 0 0 0 .8-.06 3.86 3.86 0 0 1 -.85 2.1zm-3.53-6.36a3.73 3.73 0 0 1 .47 0 3.81 3.81 0 0 1 1.44.28 6.38 6.38 0 0 0 -.74 1.22 3.83 3.83 0 0 1 -1.17-1.5zm3.58 2.32a3.68 3.68 0 0 1 -.57-.06 3.67 3.67 0 0 1 .52-.82 3.78 3.78 0 0 1 .53.83 3.91 3.91 0 0 1 -.48.05zm0-7.89a3.94 3.94 0 0 1 3.95 3.6 6.69 6.69 0 0 0 -.9-.07 5.89 5.89 0 0 0 -3.1.85 5.89 5.89 0 0 0 -3.06-.85 5.39 5.39 0 0 0 -.8.06 3.94 3.94 0 0 1 3.91-3.59zm-7.05 9.47a4 4 0 0 1 1.6-3.16 6 6 0 0 0 2.53 2.81v.35a5.93 5.93 0 0 0 1.27 3.66 3.81 3.81 0 0 1 -1.44.28 3.94 3.94 0 0 1 -3.96-3.94zm10.06 3.94a3.81 3.81 0 0 1 -1.44-.28 5.93 5.93 0 0 0 1.27-3.66 2.83 2.83 0 0 0 0-.29 6 6 0 0 0 2.6-2.8 3.92 3.92 0 0 1 -2.41 7z" fill="currentColor"/></svg>
