<svg viewBox="0 0 20 20" xmlns="http://www.w3.org/2000/svg"><g id="customize" fill="currentColor"><path d="m17.12 15h-7.19a3 3 0 0 0 -5.63 0h-1.18a1 1 0 0 0 0 2h1.18a3 3 0 0 0 5.63 0h7.19a1 1 0 0 0 0-2zm-10 2a1 1 0 1 1 1-1 1 1 0 0 1 -1 1z"/><path d="m17.12 9h-1.35a3 3 0 0 0 -5.63 0h-7a1 1 0 0 0 0 2h7a3 3 0 0 0 5.63 0h1.35a1 1 0 0 0 0-2zm-4.12 2a1 1 0 1 1 1-1 1 1 0 0 1 -1 1z"/><path d="m3.12 5h1.18a3 3 0 0 0 5.63 0h7.19a1 1 0 0 0 0-2h-7.19a3 3 0 0 0 -5.63 0h-1.18a1 1 0 0 0 0 2zm4-2a1 1 0 1 1 -1 1 1 1 0 0 1 1-1z"/></g></svg>
