<svg viewBox="0 0 32 32" xmlns="http://www.w3.org/2000/svg"><path id="directory" d="m28.61 9.92-.19-.35a1.71 1.71 0 0 0 -1.87-2.82 14 14 0 0 0 -15.37-3.89 1.7 1.7 0 0 0 -3 1.56 14 14 0 0 0 -6 13.68l-.18.07a1.71 1.71 0 0 0 1.12 3.2c.1.23.19.47.3.71a14 14 0 0 0 12.58 7.92 13.82 13.82 0 0 0 4.79-.87 1.7 1.7 0 0 0 3-1.55 14 14 0 0 0 4.82-17.66zm-12.61-5.92a12 12 0 0 1 9.77 5l.07.11c-.22.78-1.4 2.45-3.6 4.28a2 2 0 0 0 -1.73-.35c-1.87-3.67-4.59-7.11-7-8.8a12.4 12.4 0 0 1 2.49-.24zm-5.21 1.2c.86-.2 5.08 2.85 8.21 9.35v.08a2 2 0 0 0 .07 1 28.62 28.62 0 0 1 -2.6 1.42q-1.23.59-2.37 1a2 2 0 0 0 -1.26-.87c-2.96-6.37-2.69-11.43-2.05-11.98zm6.58 13.65a30.23 30.23 0 0 0 2.79-1.53c1.88 5.16 1.6 9 1.05 9.48-.74.16-3.91-2-6.77-6.72a29.8 29.8 0 0 0 2.93-1.23zm-12.69-6.85a11.8 11.8 0 0 1 3.71-5.3c-.19 3.01.85 7.3 2.61 11.11a2 2 0 0 0 -.51 1.37c-3 .67-5.19.56-6 .24a11.87 11.87 0 0 1 .19-7.42zm.73 9.58c.38 0 .76.05 1.13.05a14.81 14.81 0 0 0 1.57-.08 23.18 23.18 0 0 0 3.52-.55 1.88 1.88 0 0 0 1.1.16 23.29 23.29 0 0 0 5.76 6.61 12 12 0 0 1 -13.08-6.15zm21.91-1.58a11.8 11.8 0 0 1 -3.71 5.3 23.14 23.14 0 0 0 -1.56-8.57 2 2 0 0 0 .95-1.35 18.11 18.11 0 0 0 4-4.14 11.89 11.89 0 0 1 .32 8.76z" fill="currentColor" /></svg>
