<svg viewBox="0 0 20 20" xmlns="http://www.w3.org/2000/svg"><g id="external" fill="currentColor"><path d="m12.59 16.53h-8.19a.88.88 0 0 1 -.88-.88v-8.19a.87.87 0 0 1 .88-.88h3.6a.88.88 0 0 1 0 1.75h-2.73v6.45h6.44v-2.78a.88.88 0 1 1 1.75 0v3.64a.88.88 0 0 1 -.87.89z"/><path d="m15.09 10.08a.88.88 0 0 1 -.88-.87v-3.41h-3.41a.88.88 0 0 1 0-1.75h4.29a.87.87 0 0 1 .87.87v4.29a.87.87 0 0 1 -.87.87z"/><path d="m9.67 11.22a.83.83 0 0 1 -.62-.22.87.87 0 0 1 0-1.23l5.42-5.47a.88.88 0 0 1 1.24 1.24l-5.42 5.46a.86.86 0 0 1 -.62.22z"/></g></svg>
