<svg id="Layer_1" data-name="Layer 1" xmlns="http://www.w3.org/2000/svg" xmlns:xlink="http://www.w3.org/1999/xlink" viewBox="0 0 1430 874"><defs><style>.cls-1,.cls-12,.cls-13,.cls-14,.cls-15,.cls-22,.cls-24,.cls-25,.cls-27,.cls-5,.cls-6,.cls-7,.cls-8{fill:none}.cls-2{clip-path:url(#clip-path)}.cls-3{clip-path:url(#clip-path-2)}.cls-4{fill:#1c4342}.cls-5,.cls-6,.cls-8{stroke:#ffa47a}.cls-12,.cls-13,.cls-14,.cls-15,.cls-22,.cls-24,.cls-25,.cls-27,.cls-5,.cls-6,.cls-7{stroke-miterlimit:10}.cls-13,.cls-5,.cls-6{stroke-width:1.02px}.cls-13,.cls-6{stroke-dasharray:12.22 12.22}.cls-7{stroke:#face00;stroke-width:2.04px;stroke-dasharray:4.07 4.07}.cls-12,.cls-14,.cls-15,.cls-8{stroke-width:3.05px}.cls-12,.cls-8{stroke-dasharray:12.22}.cls-9{clip-path:url(#clip-path-3)}.cls-10{clip-path:url(#clip-path-4)}.cls-11{clip-path:url(#clip-path-5)}.cls-12,.cls-13,.cls-14{stroke:#e3eae8}.cls-15{stroke:#294040}.cls-16,.cls-26,.cls-28{fill:#ff621a}.cls-17{clip-path:url(#clip-path-6)}.cls-18{clip-path:url(#clip-path-7)}.cls-19{fill:#294040}.cls-20{fill:#1d7c79}.cls-21{fill:#c5fdf9;opacity:.2}.cls-22,.cls-24,.cls-25{stroke:#30cfc9;stroke-width:3px}.cls-22{stroke-dasharray:5.56 5.56}.cls-22,.cls-24{opacity:.8}.cls-23{fill:#30cfc9}.cls-23,.cls-26{fill-opacity:.8}.cls-24{stroke-dasharray:5.56 5.56}.cls-25{stroke-opacity:.8}.cls-27{stroke:#ff621a;stroke-linecap:round;stroke-width:5px;stroke-dasharray:0 10}.cls-28{fill-opacity:.9}</style><clipPath id="clip-path"><rect class="cls-1" x="-1480.5" y="-1072.5" width="1400" height="961"/></clipPath><clipPath id="clip-path-2"><path class="cls-1" d="M-59.11,172.82H-1488.35v-1569H-59.11Z"/></clipPath><clipPath id="clip-path-3"><rect class="cls-1" x="-1481" width="1400" height="874"/></clipPath><clipPath id="clip-path-4"><rect class="cls-1" x="-1480.5" y="-86.5" width="1400" height="961"/></clipPath><clipPath id="clip-path-5"><path class="cls-1" d="M-59.11,1158.82H-1488.35v-1569H-59.11Z"/></clipPath><clipPath id="clip-path-6"><rect class="cls-1" width="1430" height="874"/></clipPath><clipPath id="clip-path-7"><rect class="cls-1" x=".5" y="-147.5" width="1430" height="1576"/></clipPath></defs><g class="cls-2"><g id="Mask_Group_19" data-name="Mask Group 19"><g id="Group_7636" data-name="Group 7636"><g class="cls-3"><g id="Group_7640" data-name="Group 7640"><path id="Path_1361-2" data-name="Path 1361-2" class="cls-4" d="M-224.38-816.8a320.93,320.93,0,0,0-118.9,126.92c-11.51,22.27-20.64,47.51-16.19,72.22,5.65,31.62,32.14,56.2,38.38,87.66,6.68,33.48-10.76,66.65-28.57,95.75A1513.39,1513.39,0,0,1-570.33-153.83c-26.5,26.49-56.41,63.09-40.53,97.16,12.92,27.75,49.66,35.4,67.7,60,29.17,39.86-4.23,97.31,7.94,145.33,10.69,42.31,56,68.06,99.31,70.59s85.36-12.84,126.4-26.87,84.39-27,127.15-19.67C-96.71,187.45-40,278.15,45.06,296.11c29.61,6.23,60.49,3,90.11-3.49,61.38-13.44,120.76-41.49,164.33-87.06S369.34,95.78,362.07,32.91C354.2-34.48,309.81-99.36,326.66-165c8.46-33,31.4-59.9,48.62-89.22,28-47.5,39.86-112.67,5.05-155.42-23.68-29-58.27-70.89-66.51-97-9.35-29.83,16.11-117.64-4-152.08-4.16-7.13-105.85-38.6-114.68-48.69C150.82-758,180.73-820.21,125.21-857.92c-40.08-27.24-92.48-24.27-140.65-20.26-87.29,7.27-140.5,5.5-208.86,62.27"/></g><line id="Line_1250" data-name="Line 1250" class="cls-5" x1="327.87" y1="-1034.69" x2="-966.99" y2="260.17"/><line id="Line_1251" data-name="Line 1251" class="cls-6" x1="235.2" y1="-1129.25" x2="-1059.56" y2="165.51"/><line id="Line_1253" data-name="Line 1253" class="cls-7" x1="353.14" y1="-1014.42" x2="-941.72" y2="280.44"/><path id="Path_1370" data-name="Path 1370" class="cls-8" d="M430.49-960.54-895.83,334.32"/><line id="Line_1249" data-name="Line 1249" class="cls-5" x1="793.16" y1="-1070.96" x2="-501.6" y2="223.8"/></g></g></g></g><g class="cls-9"><g class="cls-10"><g id="Mask_Group_19-2" data-name="Mask Group 19"><g id="Group_7636-2" data-name="Group 7636"><g class="cls-11"><g id="Group_7640-2" data-name="Group 7640"><path id="Path_1361-2-2" data-name="Path 1361-2" class="cls-4" d="M-224.38,169.2a320.93,320.93,0,0,0-118.9,126.92c-11.51,22.27-20.64,47.51-16.19,72.22,5.65,31.62,32.14,56.2,38.38,87.66,6.68,33.48-10.76,66.65-28.57,95.75A1513.39,1513.39,0,0,1-570.33,832.17c-26.5,26.49-56.41,63.09-40.53,97.16,12.92,27.75,49.66,35.4,67.7,60,29.17,39.86-4.23,97.31,7.94,145.33,10.69,42.31,56,68.06,99.31,70.59s85.36-12.84,126.4-26.87,84.39-27,127.15-19.67c85.65,14.7,142.36,105.4,227.42,123.36,29.61,6.23,60.49,3,90.11-3.49,61.38-13.44,120.76-41.49,164.33-87.06s69.84-109.78,62.57-172.65C354.2,951.52,309.81,886.64,326.66,821c8.46-33,31.4-59.9,48.62-89.22,28-47.5,39.86-112.67,5.05-155.42-23.68-29-58.27-70.89-66.51-97-9.35-29.83,16.11-117.64-4-152.08-4.16-7.13-105.85-38.6-114.68-48.69C150.82,228,180.73,165.79,125.21,128.08c-40.08-27.24-92.48-24.27-140.65-20.26-87.29,7.27-140.5,5.5-208.86,62.27"/></g><line id="Line_1227" data-name="Line 1227" class="cls-12" x1="-904.91" y1="-1046.52" x2="168.64" y2="27.64"/><line id="Line_1230" data-name="Line 1230" class="cls-13" x1="-1182.43" y1="-508.1" x2="112.44" y2="786.77"/><line id="Line_1237" data-name="Line 1237" class="cls-14" x1="-880.39" y1="-810.13" x2="414.37" y2="484.73"/><line id="Line_1274" data-name="Line 1274" class="cls-15" x1="146.13" y1="-521.53" x2="-713.65" y2="338.65"/><line id="Line_1250-2" data-name="Line 1250" class="cls-5" x1="327.87" y1="-48.69" x2="-966.99" y2="1246.17"/><line id="Line_1251-2" data-name="Line 1251" class="cls-6" x1="235.2" y1="-143.25" x2="-1059.56" y2="1151.51"/><line id="Line_1253-2" data-name="Line 1253" class="cls-7" x1="353.14" y1="-28.42" x2="-941.72" y2="1266.44"/><path id="Path_1370-2" data-name="Path 1370" class="cls-8" d="M430.49,25.46-895.83,1320.32"/><line id="Line_1249-2" data-name="Line 1249" class="cls-5" x1="793.16" y1="-84.96" x2="-501.6" y2="1209.8"/><circle id="Ellipse_1573" data-name="Ellipse 1573" class="cls-16" cx="18.48" cy="689.92" r="12.32"/></g></g></g></g></g><g class="cls-17"><g class="cls-18"><rect class="cls-19" x="-22" y="-206" width="1617" height="1692"/><path class="cls-20" d="M1132.73-284.33c25.14-37.7,76.31-54.35,114-37.11,53.39,24.4,69.33,100.31,122.89,124.35,51.29,23,112.19-10.61,164.69-39.55s120.44-53,162.55-15.63c35.29,31.32,33,89.77,53.52,133.51,18.1,38.66,55.82,65.48,97.85,69.56,46.42,4.51,93-16.84,139.31-29.57S2088.64-93.23,2118.69-58c24.16,28.33,24.75,71.77,41.19,105.89,28.78,59.78,98.77,80.26,161.57,97.29,30.58,8.3,63.18,18.52,81,45.09,34.36,51.33-5.63,125-44.26,179.19-23.22,32.54-47.67,66.23-81.59,85.69-65,37.27-141,11.3-212.88,18.72-95.41,9.85-178.74,78-258.52,139s-172.4,120.55-266,108.74c-61.09-7.71-112.25-44.93-164.93-75.2s-115-54.7-175.6-34.81c-51.68,16.94-99,64.91-150.8,57.13-41.95-6.3-67.42-46.71-94.53-79.16A338,338,0,0,0,763,475.66c-61.94-12.8-137.08-14-169.31-69.2C573.77,372.31,577.5,327,563,289.67,524.7,191.58,379.27,183,342.37,84.23c-16.76-44.84-5.43-99.65,21.69-142.45s68.22-74.73,111.71-98.21c137.94-74.48,296.74-69.38,444.75-52.11,40,4.67,81.05,10,121.23-.43s59.79-43.83,90.58-74.53"/><circle class="cls-21" cx="745.39" cy="800.81" r="107.98"/><circle class="cls-22" cx="745.39" cy="800.81" r="107.98" transform="translate(-347.94 761.62) rotate(-45)"/><circle class="cls-23" cx="745.39" cy="800.81" r="31.07"/><circle class="cls-24" cx="745.39" cy="800.81" r="67.28" transform="translate(-255.04 358.04) rotate(-23.18)"/><circle class="cls-25" cx="536.19" cy="515.91" r="167.71"/><circle class="cls-23" cx="536.19" cy="515.91" r="48.25"/><circle class="cls-26" cx="536.2" cy="515.66" r="14"/><circle class="cls-25" cx="536.19" cy="515.91" r="104.5"/><circle class="cls-25" cx="245.38" cy="61.52" r="167.71"/><circle class="cls-23" cx="245.38" cy="61.52" r="48.25"/><circle class="cls-25" cx="245.38" cy="61.52" r="104.5"/><circle class="cls-21" cx="898.77" cy="546.77" r="107.98"/><circle class="cls-22" cx="898.77" cy="546.77" r="107.98" transform="translate(-123.38 795.67) rotate(-45)"/><circle class="cls-23" cx="898.77" cy="546.77" r="31.07"/><circle class="cls-24" cx="898.77" cy="546.77" r="67.28" transform="translate(-151.36 483.81) rotate(-27.88)"/><circle class="cls-23" cx="1396.98" cy="880.58" r="31.07"/><circle class="cls-21" cx="1395.98" cy="881.58" r="107.98"/><circle class="cls-22" cx="1395.98" cy="881.58" r="107.98" transform="translate(-214.5 1245.32) rotate(-45)"/><circle class="cls-24" cx="1395.98" cy="881.58" r="67.28" transform="translate(4.57 1770.36) rotate(-64.84)"/><circle class="cls-21" cx="60.98" cy="386.58" r="107.98"/><circle class="cls-22" cx="60.98" cy="386.58" r="107.98" transform="translate(-255.49 156.35) rotate(-45)"/><circle class="cls-23" cx="60.98" cy="386.58" r="31.07"/><circle class="cls-24" cx="60.98" cy="386.58" r="67.28" transform="translate(-305.24 248.57) rotate(-60.39)"/><circle class="cls-21" cx="745.88" cy="195.02" r="107.98"/><circle class="cls-22" cx="745.88" cy="195.02" r="107.98" transform="translate(80.56 584.54) rotate(-45)"/><circle class="cls-23" cx="745.88" cy="195.02" r="31.07"/><circle class="cls-24" cx="745.88" cy="195.02" r="67.28" transform="translate(-2.38 380.72) rotate(-28.59)"/><circle class="cls-21" cx="1083.88" cy="13.02" r="107.98"/><circle class="cls-22" cx="1083.88" cy="13.02" r="107.98" transform="translate(308.25 770.24) rotate(-45)"/><circle class="cls-23" cx="1083.88" cy="13.02" r="31.07"/><circle class="cls-24" cx="1083.88" cy="13.02" r="67.28" transform="translate(125.79 520.01) rotate(-28.57)"/><circle class="cls-21" cx="229.49" cy="976.56" r="107.98"/><circle class="cls-22" cx="229.49" cy="976.56" r="107.98" transform="translate(-623.32 448.3) rotate(-45)"/><circle class="cls-25" cx="1221.51" cy="415.41" r="167.71"/><circle class="cls-23" cx="1221.51" cy="415.41" r="48.25"/><circle class="cls-25" cx="1221.3" cy="414.6" r="104.5"/><line class="cls-27" x1="536.33" y1="516.09" x2="745.88" y2="800.48"/><line class="cls-27" x1="1221.12" y1="415.06" x2="899.3" y2="546.56"/><line class="cls-27" x1="244.99" y1="61.17" x2="746.42" y2="195.88"/><circle class="cls-28" cx="745" cy="802" r="14"/><circle class="cls-26" cx="245" cy="62" r="14"/><circle class="cls-26" cx="899.2" cy="546.66" r="14"/><circle class="cls-26" cx="746.2" cy="195.66" r="14"/><circle class="cls-26" cx="1221.2" cy="414.66" r="14"/></g></g></svg>