<svg viewBox="0 0 20 20" xmlns="http://www.w3.org/2000/svg"><path id="favorite" d="m10.15 18.82a1 1 0 0 1 -.6-.19c-3.75-2.77-8.06-6.49-8.06-10.76a5.15 5.15 0 0 1 5.11-5.05 5.17 5.17 0 0 1 3.55 1.73 5.14 5.14 0 0 1 3.54-1.73 5.15 5.15 0 0 1 5.11 5.05c0 4.27-4.31 8-8.06 10.76a1 1 0 0 1 -.59.19zm-3.55-14a3.18 3.18 0 0 0 -3.11 3.05c0 3.2 3.64 6.42 6.66 8.7 3-2.28 6.65-5.5 6.65-8.7a3.17 3.17 0 0 0 -3.11-3c-.81 0-1.72.61-2.78 1.86a1 1 0 0 1 -.76.35 1 1 0 0 1 -.77-.35c-1.05-1.3-1.96-1.91-2.78-1.91z" fill="currentColor"/></svg>
