<svg viewBox="0 0 20 20" xmlns="http://www.w3.org/2000/svg"><path id="founder" d="m18.18 1.82c-1.79-1.82-5.31-.36-8.34 2.18l-3.25.22a1 1 0 0 0 -.59.28l-4.71 4.65a1 1 0 0 0 .51 1.69l2.66.54a4.26 4.26 0 0 0 0 2.78l-1.91 1.9a1 1 0 0 0 0 1.42 1 1 0 0 0 .71.29 1 1 0 0 0 .71-.29l1.91-1.91a3.36 3.36 0 0 0 1.22.22 6 6 0 0 0 1.55-.24l.54 2.65a1 1 0 0 0 .7.76.9.9 0 0 0 .28 0 1 1 0 0 0 .71-.29l4.65-4.66a1 1 0 0 0 .29-.64l.18-3.21c2.54-3.03 4-6.55 2.18-8.34zm-1.42 1.42c.48.47.12 2.12-1.17 4.12l-3-3a7.31 7.31 0 0 1 3.5-1.36.9.9 0 0 1 .67.24zm-9.67 2.94h.54a17.24 17.24 0 0 0 -2.39 3.32l-1.24-.25zm-.69 7.42c-.25-.25-.34-1 .22-2.36a14.79 14.79 0 0 1 3.23-4.56c.39-.39.78-.74 1.17-1.06l3.37 3.38c-.33.39-.68.77-1.07 1.16a14.79 14.79 0 0 1 -4.56 3.23c-1.34.55-2.11.46-2.36.21zm4.35 2.4-.25-1.22a16.83 16.83 0 0 0 3.36-2.39v.54z" fill="currentColor"/></svg>
