<svg viewBox="0 0 20 20" xmlns="http://www.w3.org/2000/svg"><g id="funder" fill="currentColor"><path d="m19 4.2a1 1 0 1 0 -2 0 .91.91 0 0 1 -1 .8.88.88 0 0 0 -.27.06 8.91 8.91 0 0 0 -5.56-1.85 9 9 0 0 0 -2 .22l-3.91-1.37a1 1 0 0 0 -1 .17 1 1 0 0 0 -.35.92l.48 3.13a5.21 5.21 0 0 0 -.56.9h-.83a1 1 0 0 0 -1 1v3.94a1 1 0 0 0 .29.7.92.92 0 0 0 .71.29h1.5a7.07 7.07 0 0 0 1.5 1.35v2.54a1 1 0 0 0 1 1h3a1 1 0 0 0 1-1v-1h.15.88v1a1 1 0 0 0 1 1h3a1 1 0 0 0 1-1v-3.1a5.74 5.74 0 0 0 2-4.32 5.31 5.31 0 0 0 -.85-2.84 2.79 2.79 0 0 0 1.82-2.54zm-4.53 8.44a1 1 0 0 0 -.39.79v2.57h-1v-1.18a1 1 0 0 0 -.38-.78 1 1 0 0 0 -.84-.2 8.32 8.32 0 0 1 -1.63.19c-.33 0-.65 0-1.05-.08a1 1 0 0 0 -.79.24 1 1 0 0 0 -.34.75v1.06h-1.05v-2.08a1 1 0 0 0 -.49-.86 5.12 5.12 0 0 1 -1.64-1.51 1 1 0 0 0 -.87-.44h-1v-1.93h.52a1 1 0 0 0 .94-.66 3.9 3.9 0 0 1 .75-1.29 1 1 0 0 0 .24-.81l-.28-1.92 2 .72a1 1 0 0 0 1 .26 7.39 7.39 0 0 1 2-.27c3.25 0 5.9 2 5.91 4.38a3.87 3.87 0 0 1 -1.61 3.05z"/><path d="m12.47 6.53a5 5 0 0 0 -3.75-.3 1 1 0 1 0 .56 1.91 3.12 3.12 0 0 1 2.25.15 1 1 0 0 0 .94-1.76z"/></g></svg>
