<svg viewBox="0 0 20 20" xmlns="http://www.w3.org/2000/svg"><path id="github" fill="currentColor" d="m10 .3c5.5 0 10 4.5 10 10 0 4.4-2.9 8.2-6.8 9.5-.5.1-.7-.2-.7-.5s0-1.4 0-2.7c0-.9-.3-1.5-.7-1.8 2.2-.2 4.6-1.1 4.6-4.9 0-1.1-.4-2-1-2.7.1-.3.4-1.3-.1-2.7-.8-.3-2.7 1-2.7 1-.8-.2-1.7-.3-2.5-.3s-1.8 0-2.6.2c0 0-1.9-1.3-2.7-1-.6 1.4-.3 2.4-.2 2.7-.6.7-1 1.6-1 2.7 0 3.8 2.3 4.7 4.6 4.9-.3.3-.5.7-.6 1.3-.6.3-2 .7-2.9-.8-.5-1-1.5-1-1.5-1-1 0-.1.6-.1.6.7.3 1.1 1.5 1.1 1.5.6 1.8 3.4 1.2 3.4 1.2v1.9c0 .3-.2.6-.7.5-4-1.3-6.8-5.1-6.8-9.5-.1-5.7 4.4-10.1 9.9-10.1zm-6.2 14.3c0-.1 0-.1-.1-.2-.1 0-.1 0-.2 0 0 .1 0 .1.1.2s.2.1.2 0zm.4.5c.1 0 0-.1 0-.2-.1-.1-.2-.1-.2 0-.1 0 0 .1 0 .2zm.4.6c.1-.1.1-.2 0-.2-.1-.1-.2-.1-.2-.1-.1 0-.1.1 0 .2 0 .1.1.1.2.1zm.5.5c.1-.1 0-.2-.1-.2-.1-.1-.2-.1-.3 0s0 .2.1.2c.2.1.3.1.3 0zm.8.3c0-.1-.1-.2-.2-.2s-.2 0-.2.1.1.2.2.2c0 0 .1 0 .2-.1zm.8.1c0-.1-.1-.2-.2-.1-.1 0-.2.1-.2.1 0 .1.1.2.2.1.1 0 .2 0 .2-.1zm.7-.1c0-.1-.1-.1-.2-.1s-.2.1-.2.2.1.1.2.1.3-.2.2-.2z"/></svg>
