<svg viewBox="0 0 24 24" xmlns="http://www.w3.org/2000/svg"><g id="goal" fill="currentColor"><path d="m14.12 8.73-.12-.11-2.63 2.63v1.37h1.37l2.64-2.62-.11-.11 2.51.84 4.66-4.66-3.38-1.13-1.12-3.38-4.66 4.66zm3-3.58.44 1.31 1.32.45-1.62 1.59-1.32-.44-.44-1.32z"/><path d="m10.61 9.26 1.9-1.91a6 6 0 0 0 -1.13-.12 5.39 5.39 0 1 0 5.39 5.39 4.91 4.91 0 0 0 -.14-1.16l-1.84 1.85a3.46 3.46 0 1 1 -4.16-4z"/><path d="m19.23 12v.59a7.88 7.88 0 1 1 -7.88-7.88h.61l1.69-1.68a9.72 9.72 0 0 0 -2.3-.28 9.82 9.82 0 1 0 9.81 9.81 9.55 9.55 0 0 0 -.27-2.28z"/></g></svg>
