<svg height="305" viewBox="0 0 666 305" width="666" xmlns="http://www.w3.org/2000/svg" xmlns:xlink="http://www.w3.org/1999/xlink"><clipPath id="a"><path d="m0 0h666v305h-666z"/></clipPath><g clip-path="url(#a)" fill="#e3eae8"><circle cx="4" cy="4" r="4" transform="translate(64)"/><circle cx="4" cy="4" r="4" transform="translate(64 128)"/><circle cx="4" cy="4" r="4" transform="translate(64 64)"/><circle cx="4" cy="4" r="4" transform="translate(64 192)"/><circle cx="4" cy="4" r="4" transform="translate(64 32)"/><circle cx="4" cy="4" r="4" transform="translate(64 160)"/><circle cx="4" cy="4" r="4" transform="translate(64 96)"/><circle cx="4" cy="4" r="4" transform="translate(64 224)"/><circle cx="4" cy="4" r="4" transform="translate(160)"/><circle cx="4" cy="4" r="4" transform="translate(160 128)"/><circle cx="4" cy="4" r="4" transform="translate(160 64)"/><circle cx="4" cy="4" r="4" transform="translate(160 192)"/><circle cx="4" cy="4" r="4" transform="translate(160 32)"/><circle cx="4" cy="4" r="4" transform="translate(160 160)"/><circle cx="4" cy="4" r="4" transform="translate(160 96)"/><circle cx="4" cy="4" r="4" transform="translate(160 224)"/><circle cx="4" cy="4" r="4" transform="translate(256)"/><circle cx="4" cy="4" r="4" transform="translate(256 128)"/><circle cx="4" cy="4" r="4" transform="translate(256 64)"/><circle cx="4" cy="4" r="4" transform="translate(256 192)"/><circle cx="4" cy="4" r="4" transform="translate(256 32)"/><circle cx="4" cy="4" r="4" transform="translate(256 160)"/><circle cx="4" cy="4" r="4" transform="translate(256 96)"/><circle cx="4" cy="4" r="4" transform="translate(256 224)"/><circle cx="4" cy="4" r="4" transform="translate(32)"/><circle cx="4" cy="4" r="4" transform="translate(32 128)"/><circle cx="4" cy="4" r="4" transform="translate(32 64)"/><circle cx="4" cy="4" r="4" transform="translate(32 192)"/><circle cx="4" cy="4" r="4" transform="translate(32 32)"/><circle cx="4" cy="4" r="4" transform="translate(32 160)"/><circle cx="4" cy="4" r="4" transform="translate(32 96)"/><circle cx="4" cy="4" r="4" transform="translate(32 224)"/><circle cx="4" cy="4" r="4" transform="translate(128)"/><circle cx="4" cy="4" r="4" transform="translate(128 128)"/><circle cx="4" cy="4" r="4" transform="translate(128 64)"/><circle cx="4" cy="4" r="4" transform="translate(128 192)"/><circle cx="4" cy="4" r="4" transform="translate(128 32)"/><circle cx="4" cy="4" r="4" transform="translate(128 160)"/><circle cx="4" cy="4" r="4" transform="translate(128 96)"/><circle cx="4" cy="4" r="4" transform="translate(128 224)"/><circle cx="4" cy="4" r="4" transform="translate(224)"/><circle cx="4" cy="4" r="4" transform="translate(224 128)"/><circle cx="4" cy="4" r="4" transform="translate(224 64)"/><circle cx="4" cy="4" r="4" transform="translate(224 192)"/><circle cx="4" cy="4" r="4" transform="translate(224 32)"/><circle cx="4" cy="4" r="4" transform="translate(224 160)"/><circle cx="4" cy="4" r="4" transform="translate(224 96)"/><circle cx="4" cy="4" r="4" transform="translate(224 224)"/><circle cx="4" cy="4" r="4"/><circle cx="4" cy="4" r="4" transform="translate(0 128)"/><circle cx="4" cy="4" r="4" transform="translate(0 64)"/><circle cx="4" cy="4" r="4" transform="translate(0 192)"/><circle cx="4" cy="4" r="4" transform="translate(0 32)"/><circle cx="4" cy="4" r="4" transform="translate(0 160)"/><circle cx="4" cy="4" r="4" transform="translate(0 96)"/><circle cx="4" cy="4" r="4" transform="translate(0 224)"/><circle cx="4" cy="4" r="4" transform="translate(96)"/><circle cx="4" cy="4" r="4" transform="translate(96 128)"/><circle cx="4" cy="4" r="4" transform="translate(96 64)"/><circle cx="4" cy="4" r="4" transform="translate(96 192)"/><circle cx="4" cy="4" r="4" transform="translate(96 32)"/><circle cx="4" cy="4" r="4" transform="translate(96 160)"/><circle cx="4" cy="4" r="4" transform="translate(96 96)"/><circle cx="4" cy="4" r="4" transform="translate(96 224)"/><circle cx="4" cy="4" r="4" transform="translate(192)"/><circle cx="4" cy="4" r="4" transform="translate(192 128)"/><circle cx="4" cy="4" r="4" transform="translate(192 64)"/><circle cx="4" cy="4" r="4" transform="translate(192 192)"/><circle cx="4" cy="4" r="4" transform="translate(192 32)"/><circle cx="4" cy="4" r="4" transform="translate(192 160)"/><circle cx="4" cy="4" r="4" transform="translate(192 96)"/><circle cx="4" cy="4" r="4" transform="translate(192 224)"/><circle cx="4" cy="4" r="4" transform="translate(355)"/><circle cx="4" cy="4" r="4" transform="translate(355 128)"/><circle cx="4" cy="4" r="4" transform="translate(355 64)"/><circle cx="4" cy="4" r="4" transform="translate(355 192)"/><circle cx="4" cy="4" r="4" transform="translate(355 32)"/><circle cx="4" cy="4" r="4" transform="translate(355 160)"/><circle cx="4" cy="4" r="4" transform="translate(355 96)"/><circle cx="4" cy="4" r="4" transform="translate(355 224)"/><circle cx="4" cy="4" r="4" transform="translate(451)"/><circle cx="4" cy="4" r="4" transform="translate(451 128)"/><circle cx="4" cy="4" r="4" transform="translate(451 64)"/><circle cx="4" cy="4" r="4" transform="translate(451 192)"/><circle cx="4" cy="4" r="4" transform="translate(451 32)"/><circle cx="4" cy="4" r="4" transform="translate(451 160)"/><circle cx="4" cy="4" r="4" transform="translate(451 96)"/><circle cx="4" cy="4" r="4" transform="translate(451 224)"/><circle cx="4" cy="4" r="4" transform="translate(547)"/><circle cx="4" cy="4" r="4" transform="translate(547 128)"/><circle cx="4" cy="4" r="4" transform="translate(547 64)"/><circle cx="4" cy="4" r="4" transform="translate(547 192)"/><circle cx="4" cy="4" r="4" transform="translate(547 32)"/><circle cx="4" cy="4" r="4" transform="translate(547 160)"/><circle cx="4" cy="4" r="4" transform="translate(547 96)"/><circle cx="4" cy="4" r="4" transform="translate(547 224)"/><circle cx="4" cy="4" r="4" transform="translate(323)"/><circle cx="4" cy="4" r="4" transform="translate(323 128)"/><circle cx="4" cy="4" r="4" transform="translate(323 64)"/><circle cx="4" cy="4" r="4" transform="translate(323 192)"/><circle cx="4" cy="4" r="4" transform="translate(323 32)"/><circle cx="4" cy="4" r="4" transform="translate(323 160)"/><circle cx="4" cy="4" r="4" transform="translate(323 96)"/><circle cx="4" cy="4" r="4" transform="translate(323 224)"/><circle cx="4" cy="4" r="4" transform="translate(419)"/><circle cx="4" cy="4" r="4" transform="translate(419 128)"/><circle cx="4" cy="4" r="4" transform="translate(419 64)"/><circle cx="4" cy="4" r="4" transform="translate(419 192)"/><circle cx="4" cy="4" r="4" transform="translate(419 32)"/><circle cx="4" cy="4" r="4" transform="translate(419 160)"/><circle cx="4" cy="4" r="4" transform="translate(419 96)"/><circle cx="4" cy="4" r="4" transform="translate(419 224)"/><circle cx="4" cy="4" r="4" transform="translate(515)"/><circle cx="4" cy="4" r="4" transform="translate(515 128)"/><circle cx="4" cy="4" r="4" transform="translate(515 64)"/><circle cx="4" cy="4" r="4" transform="translate(515 192)"/><circle cx="4" cy="4" r="4" transform="translate(515 32)"/><circle cx="4" cy="4" r="4" transform="translate(515 160)"/><circle cx="4" cy="4" r="4" transform="translate(515 96)"/><circle cx="4" cy="4" r="4" transform="translate(515 224)"/><circle cx="4" cy="4" r="4" transform="translate(291)"/><circle cx="4" cy="4" r="4" transform="translate(291 128)"/><circle cx="4" cy="4" r="4" transform="translate(291 64)"/><circle cx="4" cy="4" r="4" transform="translate(291 192)"/><circle cx="4" cy="4" r="4" transform="translate(291 32)"/><circle cx="4" cy="4" r="4" transform="translate(291 160)"/><circle cx="4" cy="4" r="4" transform="translate(291 96)"/><circle cx="4" cy="4" r="4" transform="translate(291 224)"/><circle cx="4" cy="4" r="4" transform="translate(387)"/><circle cx="4" cy="4" r="4" transform="translate(387 128)"/><circle cx="4" cy="4" r="4" transform="translate(387 64)"/><circle cx="4" cy="4" r="4" transform="translate(387 192)"/><circle cx="4" cy="4" r="4" transform="translate(387 32)"/><circle cx="4" cy="4" r="4" transform="translate(387 160)"/><circle cx="4" cy="4" r="4" transform="translate(387 96)"/><circle cx="4" cy="4" r="4" transform="translate(387 224)"/><circle cx="4" cy="4" r="4" transform="translate(483)"/><circle cx="4" cy="4" r="4" transform="translate(483 128)"/><circle cx="4" cy="4" r="4" transform="translate(483 64)"/><circle cx="4" cy="4" r="4" transform="translate(483 192)"/><circle cx="4" cy="4" r="4" transform="translate(483 32)"/><circle cx="4" cy="4" r="4" transform="translate(483 160)"/><circle cx="4" cy="4" r="4" transform="translate(483 96)"/><circle cx="4" cy="4" r="4" transform="translate(483 224)"/><circle cx="4" cy="4" r="4" transform="translate(646)"/><circle cx="4" cy="4" r="4" transform="translate(646 128)"/><circle cx="4" cy="4" r="4" transform="translate(646 64)"/><circle cx="4" cy="4" r="4" transform="translate(646 192)"/><circle cx="4" cy="4" r="4" transform="translate(646 32)"/><circle cx="4" cy="4" r="4" transform="translate(646 160)"/><circle cx="4" cy="4" r="4" transform="translate(646 96)"/><circle cx="4" cy="4" r="4" transform="translate(646 224)"/><circle cx="4" cy="4" r="4" transform="translate(742)"/><circle cx="4" cy="4" r="4" transform="translate(742 128)"/><circle cx="4" cy="4" r="4" transform="translate(742 64)"/><circle cx="4" cy="4" r="4" transform="translate(742 192)"/><circle cx="4" cy="4" r="4" transform="translate(742 32)"/><circle cx="4" cy="4" r="4" transform="translate(742 160)"/><circle cx="4" cy="4" r="4" transform="translate(742 96)"/><circle cx="4" cy="4" r="4" transform="translate(742 224)"/><circle cx="4" cy="4" r="4" transform="translate(838)"/><circle cx="4" cy="4" r="4" transform="translate(838 128)"/><circle cx="4" cy="4" r="4" transform="translate(838 64)"/><circle cx="4" cy="4" r="4" transform="translate(838 192)"/><circle cx="4" cy="4" r="4" transform="translate(838 32)"/><circle cx="4" cy="4" r="4" transform="translate(838 160)"/><circle cx="4" cy="4" r="4" transform="translate(838 96)"/><circle cx="4" cy="4" r="4" transform="translate(838 224)"/><circle cx="4" cy="4" r="4" transform="translate(614)"/><circle cx="4" cy="4" r="4" transform="translate(614 128)"/><circle cx="4" cy="4" r="4" transform="translate(614 64)"/><circle cx="4" cy="4" r="4" transform="translate(614 192)"/><circle cx="4" cy="4" r="4" transform="translate(614 32)"/><circle cx="4" cy="4" r="4" transform="translate(614 160)"/><circle cx="4" cy="4" r="4" transform="translate(614 96)"/><circle cx="4" cy="4" r="4" transform="translate(614 224)"/><circle cx="4" cy="4" r="4" transform="translate(710)"/><circle cx="4" cy="4" r="4" transform="translate(710 128)"/><circle cx="4" cy="4" r="4" transform="translate(710 64)"/><circle cx="4" cy="4" r="4" transform="translate(710 192)"/><circle cx="4" cy="4" r="4" transform="translate(710 32)"/><circle cx="4" cy="4" r="4" transform="translate(710 160)"/><circle cx="4" cy="4" r="4" transform="translate(710 96)"/><circle cx="4" cy="4" r="4" transform="translate(710 224)"/><circle cx="4" cy="4" r="4" transform="translate(806)"/><circle cx="4" cy="4" r="4" transform="translate(806 128)"/><circle cx="4" cy="4" r="4" transform="translate(806 64)"/><circle cx="4" cy="4" r="4" transform="translate(806 192)"/><circle cx="4" cy="4" r="4" transform="translate(806 32)"/><circle cx="4" cy="4" r="4" transform="translate(806 160)"/><circle cx="4" cy="4" r="4" transform="translate(806 96)"/><circle cx="4" cy="4" r="4" transform="translate(806 224)"/><circle cx="4" cy="4" r="4" transform="translate(582)"/><circle cx="4" cy="4" r="4" transform="translate(582 128)"/><circle cx="4" cy="4" r="4" transform="translate(582 64)"/><circle cx="4" cy="4" r="4" transform="translate(582 192)"/><circle cx="4" cy="4" r="4" transform="translate(582 32)"/><circle cx="4" cy="4" r="4" transform="translate(582 160)"/><circle cx="4" cy="4" r="4" transform="translate(582 96)"/><circle cx="4" cy="4" r="4" transform="translate(582 224)"/><circle cx="4" cy="4" r="4" transform="translate(678)"/><circle cx="4" cy="4" r="4" transform="translate(678 128)"/><circle cx="4" cy="4" r="4" transform="translate(678 64)"/><circle cx="4" cy="4" r="4" transform="translate(678 192)"/><circle cx="4" cy="4" r="4" transform="translate(678 32)"/><circle cx="4" cy="4" r="4" transform="translate(678 160)"/><circle cx="4" cy="4" r="4" transform="translate(678 96)"/><circle cx="4" cy="4" r="4" transform="translate(678 224)"/><circle cx="4" cy="4" r="4" transform="translate(774)"/><circle cx="4" cy="4" r="4" transform="translate(774 128)"/><circle cx="4" cy="4" r="4" transform="translate(774 64)"/><circle cx="4" cy="4" r="4" transform="translate(774 192)"/><circle cx="4" cy="4" r="4" transform="translate(774 32)"/><circle cx="4" cy="4" r="4" transform="translate(774 160)"/><circle cx="4" cy="4" r="4" transform="translate(774 96)"/><circle cx="4" cy="4" r="4" transform="translate(774 224)"/><circle cx="4" cy="4" r="4" transform="translate(64 252)"/><circle cx="4" cy="4" r="4" transform="translate(64 380)"/><circle cx="4" cy="4" r="4" transform="translate(64 316)"/><circle cx="4" cy="4" r="4" transform="translate(64 444)"/><circle cx="4" cy="4" r="4" transform="translate(64 284)"/><circle cx="4" cy="4" r="4" transform="translate(64 412)"/><circle cx="4" cy="4" r="4" transform="translate(64 348)"/><circle cx="4" cy="4" r="4" transform="translate(64 476)"/><circle cx="4" cy="4" r="4" transform="translate(160 252)"/><circle cx="4" cy="4" r="4" transform="translate(160 380)"/><circle cx="4" cy="4" r="4" transform="translate(160 316)"/><circle cx="4" cy="4" r="4" transform="translate(160 444)"/><circle cx="4" cy="4" r="4" transform="translate(160 284)"/><circle cx="4" cy="4" r="4" transform="translate(160 412)"/><circle cx="4" cy="4" r="4" transform="translate(160 348)"/><circle cx="4" cy="4" r="4" transform="translate(160 476)"/><circle cx="4" cy="4" r="4" transform="translate(256 252)"/><circle cx="4" cy="4" r="4" transform="translate(256 380)"/><circle cx="4" cy="4" r="4" transform="translate(256 316)"/><circle cx="4" cy="4" r="4" transform="translate(256 444)"/><circle cx="4" cy="4" r="4" transform="translate(256 284)"/><circle cx="4" cy="4" r="4" transform="translate(256 412)"/><circle cx="4" cy="4" r="4" transform="translate(256 348)"/><circle cx="4" cy="4" r="4" transform="translate(256 476)"/><circle cx="4" cy="4" r="4" transform="translate(32 252)"/><circle cx="4" cy="4" r="4" transform="translate(32 380)"/><circle cx="4" cy="4" r="4" transform="translate(32 316)"/><circle cx="4" cy="4" r="4" transform="translate(32 444)"/><circle cx="4" cy="4" r="4" transform="translate(32 284)"/><circle cx="4" cy="4" r="4" transform="translate(32 412)"/><circle cx="4" cy="4" r="4" transform="translate(32 348)"/><circle cx="4" cy="4" r="4" transform="translate(32 476)"/><circle cx="4" cy="4" r="4" transform="translate(128 252)"/><circle cx="4" cy="4" r="4" transform="translate(128 380)"/><circle cx="4" cy="4" r="4" transform="translate(128 316)"/><circle cx="4" cy="4" r="4" transform="translate(128 444)"/><circle cx="4" cy="4" r="4" transform="translate(128 284)"/><circle cx="4" cy="4" r="4" transform="translate(128 412)"/><circle cx="4" cy="4" r="4" transform="translate(128 348)"/><circle cx="4" cy="4" r="4" transform="translate(128 476)"/><circle cx="4" cy="4" r="4" transform="translate(224 252)"/><circle cx="4" cy="4" r="4" transform="translate(224 380)"/><circle cx="4" cy="4" r="4" transform="translate(224 316)"/><circle cx="4" cy="4" r="4" transform="translate(224 444)"/><circle cx="4" cy="4" r="4" transform="translate(224 284)"/><circle cx="4" cy="4" r="4" transform="translate(224 412)"/><circle cx="4" cy="4" r="4" transform="translate(224 348)"/><circle cx="4" cy="4" r="4" transform="translate(224 476)"/><circle cx="4" cy="4" r="4" transform="translate(0 252)"/><circle cx="4" cy="4" r="4" transform="translate(0 380)"/><circle cx="4" cy="4" r="4" transform="translate(0 316)"/><circle cx="4" cy="4" r="4" transform="translate(0 444)"/><circle cx="4" cy="4" r="4" transform="translate(0 284)"/><circle cx="4" cy="4" r="4" transform="translate(0 412)"/><circle cx="4" cy="4" r="4" transform="translate(0 348)"/><circle cx="4" cy="4" r="4" transform="translate(0 476)"/><circle cx="4" cy="4" r="4" transform="translate(96 252)"/><circle cx="4" cy="4" r="4" transform="translate(96 380)"/><circle cx="4" cy="4" r="4" transform="translate(96 316)"/><circle cx="4" cy="4" r="4" transform="translate(96 444)"/><circle cx="4" cy="4" r="4" transform="translate(96 284)"/><circle cx="4" cy="4" r="4" transform="translate(96 412)"/><circle cx="4" cy="4" r="4" transform="translate(96 348)"/><circle cx="4" cy="4" r="4" transform="translate(96 476)"/><circle cx="4" cy="4" r="4" transform="translate(192 252)"/><circle cx="4" cy="4" r="4" transform="translate(192 380)"/><circle cx="4" cy="4" r="4" transform="translate(192 316)"/><circle cx="4" cy="4" r="4" transform="translate(192 444)"/><circle cx="4" cy="4" r="4" transform="translate(192 284)"/><circle cx="4" cy="4" r="4" transform="translate(192 412)"/><circle cx="4" cy="4" r="4" transform="translate(192 348)"/><circle cx="4" cy="4" r="4" transform="translate(192 476)"/><circle cx="4" cy="4" r="4" transform="translate(355 252)"/><circle cx="4" cy="4" r="4" transform="translate(355 380)"/><circle cx="4" cy="4" r="4" transform="translate(355 316)"/><circle cx="4" cy="4" r="4" transform="translate(355 444)"/><circle cx="4" cy="4" r="4" transform="translate(355 284)"/><circle cx="4" cy="4" r="4" transform="translate(355 412)"/><circle cx="4" cy="4" r="4" transform="translate(355 348)"/><circle cx="4" cy="4" r="4" transform="translate(355 476)"/><circle cx="4" cy="4" r="4" transform="translate(451 252)"/><circle cx="4" cy="4" r="4" transform="translate(451 380)"/><circle cx="4" cy="4" r="4" transform="translate(451 316)"/><circle cx="4" cy="4" r="4" transform="translate(451 444)"/><circle cx="4" cy="4" r="4" transform="translate(451 284)"/><circle cx="4" cy="4" r="4" transform="translate(451 412)"/><circle cx="4" cy="4" r="4" transform="translate(451 348)"/><circle cx="4" cy="4" r="4" transform="translate(451 476)"/><circle cx="4" cy="4" r="4" transform="translate(547 252)"/><circle cx="4" cy="4" r="4" transform="translate(547 380)"/><circle cx="4" cy="4" r="4" transform="translate(547 316)"/><circle cx="4" cy="4" r="4" transform="translate(547 444)"/><circle cx="4" cy="4" r="4" transform="translate(547 284)"/><circle cx="4" cy="4" r="4" transform="translate(547 412)"/><circle cx="4" cy="4" r="4" transform="translate(547 348)"/><circle cx="4" cy="4" r="4" transform="translate(547 476)"/><circle cx="4" cy="4" r="4" transform="translate(323 252)"/><circle cx="4" cy="4" r="4" transform="translate(323 380)"/><circle cx="4" cy="4" r="4" transform="translate(323 316)"/><circle cx="4" cy="4" r="4" transform="translate(323 444)"/><circle cx="4" cy="4" r="4" transform="translate(323 284)"/><circle cx="4" cy="4" r="4" transform="translate(323 412)"/><circle cx="4" cy="4" r="4" transform="translate(323 348)"/><circle cx="4" cy="4" r="4" transform="translate(323 476)"/><circle cx="4" cy="4" r="4" transform="translate(419 252)"/><circle cx="4" cy="4" r="4" transform="translate(419 380)"/><circle cx="4" cy="4" r="4" transform="translate(419 316)"/><circle cx="4" cy="4" r="4" transform="translate(419 444)"/><circle cx="4" cy="4" r="4" transform="translate(419 284)"/><circle cx="4" cy="4" r="4" transform="translate(419 412)"/><circle cx="4" cy="4" r="4" transform="translate(419 348)"/><circle cx="4" cy="4" r="4" transform="translate(419 476)"/><circle cx="4" cy="4" r="4" transform="translate(515 252)"/><circle cx="4" cy="4" r="4" transform="translate(515 380)"/><circle cx="4" cy="4" r="4" transform="translate(515 316)"/><circle cx="4" cy="4" r="4" transform="translate(515 444)"/><circle cx="4" cy="4" r="4" transform="translate(515 284)"/><circle cx="4" cy="4" r="4" transform="translate(515 412)"/><circle cx="4" cy="4" r="4" transform="translate(515 348)"/><circle cx="4" cy="4" r="4" transform="translate(515 476)"/><circle cx="4" cy="4" r="4" transform="translate(291 252)"/><circle cx="4" cy="4" r="4" transform="translate(291 380)"/><circle cx="4" cy="4" r="4" transform="translate(291 316)"/><circle cx="4" cy="4" r="4" transform="translate(291 444)"/><circle cx="4" cy="4" r="4" transform="translate(291 284)"/><circle cx="4" cy="4" r="4" transform="translate(291 412)"/><circle cx="4" cy="4" r="4" transform="translate(291 348)"/><circle cx="4" cy="4" r="4" transform="translate(291 476)"/><circle cx="4" cy="4" r="4" transform="translate(387 252)"/><circle cx="4" cy="4" r="4" transform="translate(387 380)"/><circle cx="4" cy="4" r="4" transform="translate(387 316)"/><circle cx="4" cy="4" r="4" transform="translate(387 444)"/><circle cx="4" cy="4" r="4" transform="translate(387 284)"/><circle cx="4" cy="4" r="4" transform="translate(387 412)"/><circle cx="4" cy="4" r="4" transform="translate(387 348)"/><circle cx="4" cy="4" r="4" transform="translate(387 476)"/><circle cx="4" cy="4" r="4" transform="translate(483 252)"/><circle cx="4" cy="4" r="4" transform="translate(483 380)"/><circle cx="4" cy="4" r="4" transform="translate(483 316)"/><circle cx="4" cy="4" r="4" transform="translate(483 444)"/><circle cx="4" cy="4" r="4" transform="translate(483 284)"/><circle cx="4" cy="4" r="4" transform="translate(483 412)"/><circle cx="4" cy="4" r="4" transform="translate(483 348)"/><circle cx="4" cy="4" r="4" transform="translate(483 476)"/><circle cx="4" cy="4" r="4" transform="translate(646 252)"/><circle cx="4" cy="4" r="4" transform="translate(646 380)"/><circle cx="4" cy="4" r="4" transform="translate(646 316)"/><circle cx="4" cy="4" r="4" transform="translate(646 444)"/><circle cx="4" cy="4" r="4" transform="translate(646 284)"/><circle cx="4" cy="4" r="4" transform="translate(646 412)"/><circle cx="4" cy="4" r="4" transform="translate(646 348)"/><circle cx="4" cy="4" r="4" transform="translate(646 476)"/><circle cx="4" cy="4" r="4" transform="translate(742 252)"/><circle cx="4" cy="4" r="4" transform="translate(742 380)"/><circle cx="4" cy="4" r="4" transform="translate(742 316)"/><circle cx="4" cy="4" r="4" transform="translate(742 444)"/><circle cx="4" cy="4" r="4" transform="translate(742 284)"/><circle cx="4" cy="4" r="4" transform="translate(742 412)"/><circle cx="4" cy="4" r="4" transform="translate(742 348)"/><circle cx="4" cy="4" r="4" transform="translate(742 476)"/><circle cx="4" cy="4" r="4" transform="translate(838 252)"/><circle cx="4" cy="4" r="4" transform="translate(838 380)"/><circle cx="4" cy="4" r="4" transform="translate(838 316)"/><circle cx="4" cy="4" r="4" transform="translate(838 444)"/><circle cx="4" cy="4" r="4" transform="translate(838 284)"/><circle cx="4" cy="4" r="4" transform="translate(838 412)"/><circle cx="4" cy="4" r="4" transform="translate(838 348)"/><circle cx="4" cy="4" r="4" transform="translate(838 476)"/><circle cx="4" cy="4" r="4" transform="translate(614 252)"/><circle cx="4" cy="4" r="4" transform="translate(614 380)"/><circle cx="4" cy="4" r="4" transform="translate(614 316)"/><circle cx="4" cy="4" r="4" transform="translate(614 444)"/><circle cx="4" cy="4" r="4" transform="translate(614 284)"/><circle cx="4" cy="4" r="4" transform="translate(614 412)"/><circle cx="4" cy="4" r="4" transform="translate(614 348)"/><circle cx="4" cy="4" r="4" transform="translate(614 476)"/><circle cx="4" cy="4" r="4" transform="translate(710 252)"/><circle cx="4" cy="4" r="4" transform="translate(710 380)"/><circle cx="4" cy="4" r="4" transform="translate(710 316)"/><circle cx="4" cy="4" r="4" transform="translate(710 444)"/><circle cx="4" cy="4" r="4" transform="translate(710 284)"/><circle cx="4" cy="4" r="4" transform="translate(710 412)"/><circle cx="4" cy="4" r="4" transform="translate(710 348)"/><circle cx="4" cy="4" r="4" transform="translate(710 476)"/><circle cx="4" cy="4" r="4" transform="translate(806 252)"/><circle cx="4" cy="4" r="4" transform="translate(806 380)"/><circle cx="4" cy="4" r="4" transform="translate(806 316)"/><circle cx="4" cy="4" r="4" transform="translate(806 444)"/><circle cx="4" cy="4" r="4" transform="translate(806 284)"/><circle cx="4" cy="4" r="4" transform="translate(806 412)"/><circle cx="4" cy="4" r="4" transform="translate(806 348)"/><circle cx="4" cy="4" r="4" transform="translate(806 476)"/><circle cx="4" cy="4" r="4" transform="translate(582 252)"/><circle cx="4" cy="4" r="4" transform="translate(582 380)"/><circle cx="4" cy="4" r="4" transform="translate(582 316)"/><circle cx="4" cy="4" r="4" transform="translate(582 444)"/><circle cx="4" cy="4" r="4" transform="translate(582 284)"/><circle cx="4" cy="4" r="4" transform="translate(582 412)"/><circle cx="4" cy="4" r="4" transform="translate(582 348)"/><circle cx="4" cy="4" r="4" transform="translate(582 476)"/><circle cx="4" cy="4" r="4" transform="translate(678 252)"/><circle cx="4" cy="4" r="4" transform="translate(678 380)"/><circle cx="4" cy="4" r="4" transform="translate(678 316)"/><circle cx="4" cy="4" r="4" transform="translate(678 444)"/><circle cx="4" cy="4" r="4" transform="translate(678 284)"/><circle cx="4" cy="4" r="4" transform="translate(678 412)"/><circle cx="4" cy="4" r="4" transform="translate(678 348)"/><circle cx="4" cy="4" r="4" transform="translate(678 476)"/><circle cx="4" cy="4" r="4" transform="translate(774 252)"/><circle cx="4" cy="4" r="4" transform="translate(774 380)"/><circle cx="4" cy="4" r="4" transform="translate(774 316)"/><circle cx="4" cy="4" r="4" transform="translate(774 444)"/><circle cx="4" cy="4" r="4" transform="translate(774 284)"/><circle cx="4" cy="4" r="4" transform="translate(774 412)"/><circle cx="4" cy="4" r="4" transform="translate(774 348)"/><circle cx="4" cy="4" r="4" transform="translate(774 476)"/></g></svg>