<svg viewBox="0 0 1400 874" xmlns="http://www.w3.org/2000/svg" xmlns:xlink="http://www.w3.org/1999/xlink"><clipPath id="a"><path d="m1.32-1073.91h1397v961h-1397z"/></clipPath><clipPath id="b"><path d="m-15.18-1687.41h1433v1569h-1433z"/></clipPath><clipPath id="c"><path d="m1526.5-1073.5h1400v961h-1400z"/></clipPath><clipPath id="d"><path d="m2947.89 171.82h-1429.24v-1569h1429.24z"/></clipPath><clipPath id="e"><path d="m-.5-.5h1400v874h-1400z"/></clipPath><clipPath id="f"><path d="m-.68-80.91h1397v961h-1397z"/></clipPath><clipPath id="g"><path d="m-17.18-694.41h1433v1569h-1433z"/></clipPath><clipPath id="h"><path d="m1526-1h1400v874h-1400z"/></clipPath><clipPath id="i"><path d="m1526.5-87.5h1400v961h-1400z"/></clipPath><clipPath id="j"><path d="m2947.89 1157.82h-1429.24v-1569h1429.24z"/></clipPath><clipPath id="k"><path d="m-1519-1h1400v874h-1400z"/></clipPath><clipPath id="l"><path d="m-1518.5-87.5h1400v961h-1400z"/></clipPath><clipPath id="m"><path d="m-1518.8-87.78h1400v2319h-1400z"/></clipPath><clipPath id="n"><path d="m-1535-90h1433v1569h-1433z"/></clipPath><g clip-path="url(#a)"><g clip-path="url(#b)"><path d="m299.7-987c27.62-37.71 78.52-46.23 113.49-18.93 49.53 38.57 58.32 128 108 166.2 47.56 36.6 109.43 10.73 162.7-11.44s121-35.73 158.56 15.31c31.42 42.75 24.14 108.7 40.14 162.5 14.17 47.56 48.29 85.74 88.57 98.92 44.48 14.59 91.38-.25 137.3-5.3s99 4.11 125 50.25c20.92 37.08 17.71 86.54 30.63 128.66 22.63 73.76 88.5 111.23 147.8 143.33 28.87 15.62 59.5 33.85 74.33 67.69 28.73 65.31-16.34 140.88-58.39 194.52-25.29 32.29-51.83 65.58-86.37 80.73-66.06 29.11-137.37-15.86-207.5-22-93.09-8.2-179.62 52.22-262.08 105.31s-177.19 101.83-266.61 69.41c-58.38-21.22-104.63-73.83-152.92-119s-106.35-85.47-166.76-75.16c-51.43 8.7-101.35 53.51-150.75 34.18-40-15.7-61.14-66.73-84.5-109.09-42.23-76.26-103-135-174.11-168-58.78-27.14-131.33-43.78-157.71-113-16.33-42.84-8.79-93.55-19.54-138.92-28.48-119.25-168.34-158.61-195.43-278.17-12.34-54.35 3.41-114.3 33.39-157.37s72.49-71 116.57-88.82c139.87-56.56 293-18.46 434.62 31.24 38.31 13.41 77.47 27.85 117.23 24.14s61.64-37.66 94.07-66.19" fill="#b2b2a7"/><path d="m500.66 153.8-134.96 134.96" style="fill:none;stroke:#294040;stroke-linecap:round;stroke-miterlimit:10;stroke-width:3;stroke-dasharray:0 7"/><path d="m1124.18-467.92-605.52 605.52" style="fill:none;stroke-linecap:round;stroke-miterlimit:10;stroke-width:3;stroke-dasharray:0 7;stroke:#585850"/><circle cx="456.96" cy="197.63" fill="#face00" r="10.42"/><path d="m1323.82-233.13-81.82 81.65-36 36-131.53 131.2" fill="none" opacity=".4" stroke="#16605d" stroke-linecap="round" stroke-width="2"/><circle cx="745.52" cy="-90.22" fill="#b9b9af" r="157.31"/><circle cx="745.52" cy="-90.22" r="119.72" style="fill:none;stroke:#294040;stroke-miterlimit:10;stroke-linecap:square;stroke-width:2.09;stroke-dasharray:16.72 11.14"/></g></g><g clip-path="url(#c)"><g clip-path="url(#d)" fill="none" stroke-miterlimit="10" stroke-width="1.02"><path d="m1067.7-847.23 1294.87 1294.87" stroke="#30cfc9"/><path d="m1275.7-200.23 1294.87 1294.87" stroke="#30cfc9"/><path d="m1059.24-753.76 1012.58 1012.47" stroke="#e3eae8"/></g></g><g clip-path="url(#e)"><g clip-path="url(#f)"><g clip-path="url(#g)"><path d="m-32.53-198.46h1517v640h-1517z" fill="none"/><path d="m-32.53-198.46h1432v640h-1432z" fill="none"/><path d="m517.53-86.33c10.1-122.54 40.68-225.93 73.94-342.56 18-63.27 40-126.46 76.75-177.27s90.53-88 147-85.72c67.12 2.7 124 58.58 168.14 118.31s82.87 127.77 139.64 170.05c64.42 48 145.18 56.89 220.69 45.13s147.86-42.28 220.81-68.27c107.59-38.2 218.85-66.88 331-62.81s226 43.28 312.14 128.31c45.53 45 83.77 105.85 89 175.66 7 92.86-45.66 178.58-108 235.77-37.33 34.29-83.12 70-86.73 125.62-1.83 28.59 8.4 56 14.5 83.71 19.95 90.49-6.56 191.35-62.12 257.93s-137.18 99.24-216.16 93.94c-70-4.69-140.13-37-208.62-19-59 15.53-106.14 65.73-153.51 110.09-97.56 91.44-206.62 164.65-323.28 217-29.39 13.15-60.16 25.14-91.52 22.68-97-7.61-163.48-146.91-260.5-139.92-69.54 5-117.83 83.49-182.18 114.85-101.97 49.83-214.35-26.87-304.42-102.44-31.49-26.37-65.67-58.5-69.67-103.86-8.52-96.94 116.45-132.69 144.92-224.25 23.55-75.72-26.9-152.29-67.7-217s-72-164.36-21.26-218.33c34.61-36.77 87.39-28.46 133.61-34.54s76.39-48.58 83.34-102.75" fill="#c9f8db"/><path d="m297.7 6c27.62-37.68 78.52-46.2 113.49-18.9 49.53 38.57 58.32 128 108 166.2 47.56 36.6 109.43 10.73 162.7-11.44s121-35.73 158.56 15.31c31.42 42.75 24.14 108.7 40.14 162.5 14.17 47.56 48.29 85.74 88.57 98.92 44.48 14.59 91.38-.25 137.3-5.3s99 4.11 125 50.25c20.92 37.08 17.71 86.54 30.63 128.66 22.63 73.76 88.5 111.23 147.8 143.33 28.87 15.62 59.5 33.85 74.33 67.69 28.73 65.31-16.34 140.88-58.39 194.52-25.25 32.26-51.82 65.55-86.33 80.7-66.06 29.11-137.37-15.86-207.5-22-93.09-8.2-179.62 52.22-262.08 105.31s-177.19 101.84-266.61 69.42c-58.38-21.22-104.63-73.83-152.92-119s-106.39-85.48-166.8-75.17c-51.43 8.75-101.35 53.56-150.75 34.23-40-15.7-61.14-66.73-84.5-109.09-42.23-76.26-103-135-174.11-168-58.78-27.14-131.33-43.78-157.71-113-16.33-42.84-8.79-93.55-19.54-138.92-28.48-119.3-168.34-158.66-195.43-278.22-12.34-54.35 3.41-114.3 33.39-157.37s72.49-71 116.57-88.82c139.87-56.59 292.98-18.49 434.62 31.19 38.31 13.41 77.47 27.85 117.23 24.14s61.64-37.61 94.07-66.14" fill="#b2b2a7"/><path d="m-117.3-690.91c-13.7 21.29-24.57 45.42-19.26 69 6.72 30.23 38.27 53.72 45.69 83.8 8 32-12.82 63.73-34 91.55-74.13 97.42-162.33 187.41-262.77 268.14-31.55 25.33-67.17 60.32-48.26 92.89 15.38 26.54 59.13 33.85 80.6 57.41 34.73 38.1-5 93 9.46 138.94 12.72 40.45 66.72 65.07 118.25 67.49s101.59-12.31 150.5-25.69 100.49-25.83 151.4-18.81c102 14.05 169.5 100.77 270.78 117.94 35.27 6 72 2.84 107.29-3.33 73.09-12.85 143.79-39.67 195.67-83.24s83.17-105 74.5-165.06c-9.37-64.43-62.22-126.45-42.16-189.19 10.08-31.58 37.39-57.26 57.89-85.29 33.32-45.42 47.46-107.73 6-148.6-28.19-27.75-69.38-67.77-79.18-92.75-11.14-28.52 19.18-112.47-4.78-145.4-5-6.81-126-36.9-136.54-46.55-52.76-48.4-17.14-107.86-83.25-143.91-47.72-26-110.12-23.2-167.47-19.37-103.94 7-167.3 5.25-248.69 59.53" fill="#face00"/><circle cx="480.92" cy="112.43" fill="#b2b2a7" r="10.42"/><g fill="none" stroke-miterlimit="10"><path d="m268.14-7.79-169.75 169.93" stroke="#f9f9f7" stroke-width="3"/><path d="m71.1 189.26-169.76 169.92" stroke="#f9f9f7" stroke-width="3"/><path d="m92.69 167.66-15 15.18" stroke="#f9f9f7" stroke-width="3"/><g stroke="#294040"><circle cx="242.02" cy="526.28" r="239.81" stroke-width=".43"/><circle cx="242.02" cy="526.28" r="193.56" stroke-linecap="square" stroke-width="1.71"/><path d="m241.84 507.44a18.84 18.84 0 1 1 -18.67 19 18.85 18.85 0 0 1 18.67-19z" stroke-linecap="square" stroke-width="6"/><circle cx="242.02" cy="526.28" r="54.81" stroke-linecap="square" stroke-width="5.14"/><circle cx="242.02" cy="526.28" r="101.06" stroke-linecap="square" stroke-width="4.28"/><circle cx="242.02" cy="526.28" r="147.31" stroke-linecap="square" stroke-width="2.57"/><circle cx="1379.02" cy="703.28" r="239.81" stroke-width=".43"/><circle cx="1379.02" cy="703.28" r="193.56" stroke-linecap="square" stroke-width="1.71"/><path d="m1378.84 684.44a18.84 18.84 0 1 1 -18.67 19 18.85 18.85 0 0 1 18.67-19z" stroke-linecap="square" stroke-width="6"/><circle cx="1379.02" cy="703.28" r="54.81" stroke-linecap="square" stroke-width="5.14"/><circle cx="1379.02" cy="703.28" r="101.06" stroke-linecap="square" stroke-width="4.28"/><circle cx="1379.02" cy="703.28" r="147.31" stroke-linecap="square" stroke-width="2.57"/></g><path d="m470.87 123.45-430.23 437.25" stroke="#f9f9f7" stroke-dasharray="0 7" stroke-linecap="round" stroke-width="3"/><path d="m849.66-23.2-134.96 134.96" stroke="#294040" stroke-dasharray="0 7" stroke-linecap="round" stroke-width="3"/><path d="m994.83 171.14-194.34 194.35" opacity=".4" stroke="#16605d" stroke-linecap="round" stroke-width="2"/><path d="m975.62-434.38-430.23 437.24" stroke="#f9f9f7" stroke-dasharray="0 7" stroke-linecap="round" stroke-width="3"/></g><circle cx="908.82" cy="258.03" fill="#b2b2a7" r="11.04"/><circle cx="263.96" cy="334.63" fill="#face00" r="10.42"/><circle cx="805.96" cy="20.63" fill="#face00" r="10.42"/><g fill="none"><path d="m1122.18 525.08-605.52 605.52" stroke="#585850" stroke-dasharray="0 7" stroke-linecap="round" stroke-miterlimit="10" stroke-width="3"/><path d="m1332.82 74.87-81.82 81.65-36 36-131.53 131.2" opacity=".4" stroke="#16605d" stroke-linecap="round" stroke-width="2"/><path d="m1402.1 7.39-59.54 59.35" opacity=".4" stroke="#16605d" stroke-linecap="round" stroke-miterlimit="10" stroke-width="2"/><path d="m1321.82 759.87-81.82 81.65-36 36-131.49 131.23" opacity=".4" stroke="#16605d" stroke-linecap="round" stroke-width="2"/><path d="m1391.1 692.39-59.54 59.35" opacity=".4" stroke="#16605d" stroke-linecap="round" stroke-miterlimit="10" stroke-width="2"/></g><circle cx="1246.21" cy="160.47" fill="#dafae6" r="113"/><path d="m1246.1 149.47a11 11 0 1 1 -10.89 11.11 11 11 0 0 1 10.89-11.11z" fill="#294040"/><circle cx="1246.21" cy="160.47" r="32" style="fill:none;stroke:#294040;stroke-miterlimit:10;stroke-linecap:square;stroke-width:3.03;stroke-dasharray:5.91 8.45"/><circle cx="1246.21" cy="160.47" r="59" style="fill:none;stroke:#294040;stroke-miterlimit:10;stroke-linecap:square;stroke-width:2.44;stroke-dasharray:8.92 7.93"/><circle cx="1246.21" cy="160.47" r="86" style="fill:none;stroke:#294040;stroke-miterlimit:10;stroke-linecap:square;stroke-width:1.5;stroke-dasharray:12.01 8.01"/><circle cx="277.21" cy="-17.53" fill="#fddb39" r="140"/><circle cx="277.21" cy="-17.53" fill="none" r="113" stroke="#294040" stroke-dasharray="14 8.02" stroke-linecap="square" stroke-miterlimit="10"/><circle cx="277.21" cy="-17.53" r="32" style="fill:none;stroke:#294040;stroke-miterlimit:10;stroke-width:3;stroke-linecap:square;stroke-dasharray:6.15 8.2"/><circle cx="277.21" cy="-17.53" r="59" style="fill:none;stroke:#294040;stroke-miterlimit:10;stroke-linecap:square;stroke-width:2.5;stroke-dasharray:8.92 7.93"/><circle cx="277.21" cy="-17.53" r="86" style="fill:none;stroke:#294040;stroke-miterlimit:10;stroke-linecap:square;stroke-dasharray:12.01 8.01;stroke-width:1.5"/><circle cx="711.21" cy="273.47" fill="#b9b9af" r="113"/><path d="m711.1 262.47a11 11 0 1 1 -10.89 11.11 11 11 0 0 1 10.89-11.11z" fill="#294040"/><circle cx="711.21" cy="273.47" r="32" style="fill:none;stroke:#294040;stroke-miterlimit:10;stroke-linecap:square;stroke-dasharray:5.91 8.45;stroke-width:3.03"/><circle cx="711.21" cy="273.47" r="59" style="fill:none;stroke:#294040;stroke-miterlimit:10;stroke-linecap:square;stroke-width:2.44;stroke-dasharray:8.92 7.93"/><circle cx="711.21" cy="273.47" r="86" style="fill:none;stroke:#294040;stroke-miterlimit:10;stroke-linecap:square;stroke-width:1.5;stroke-dasharray:12.01 8.01"/><circle cx="743.52" cy="902.78" fill="#b9b9af" r="157.31"/><circle cx="743.52" cy="902.78" r="44.55" style="fill:none;stroke:#294040;stroke-miterlimit:10;stroke-linecap:square;stroke-width:4.21;stroke-dasharray:8.23 11.76"/><circle cx="743.52" cy="902.78" r="82.13" style="fill:none;stroke:#294040;stroke-miterlimit:10;stroke-linecap:square;stroke-width:3.39;stroke-dasharray:12.42 11.04"/><circle cx="743.52" cy="902.78" r="119.72" style="fill:none;stroke:#294040;stroke-miterlimit:10;stroke-linecap:square;stroke-width:2.09;stroke-dasharray:16.72 11.14"/></g></g></g><g clip-path="url(#h)"><g clip-path="url(#i)"><g clip-path="url(#j)"><path d="m1550.48-641.53a320.8 320.8 0 0 0 -118.9 126.92c-11.51 22.27-20.64 47.5-16.18 72.22 5.64 31.62 32.13 56.19 38.37 87.66 6.68 33.47-10.76 66.65-28.57 95.75a1513.32 1513.32 0 0 1 -220.67 280.41c-26.5 26.5-56.41 63.09-40.52 97.16 12.91 27.76 49.65 35.41 67.69 60 29.17 39.86-4.23 97.31 7.94 145.33 10.69 42.31 56 68.06 99.31 70.59s85.36-12.85 126.41-26.87 84.39-27 127.14-19.67c85.66 14.69 142.36 105.39 227.42 123.36 29.62 6.23 60.49 3 90.11-3.49 61.38-13.44 120.76-41.49 164.33-87.07s69.84-109.77 62.57-172.64c-7.87-67.39-52.25-132.27-35.4-197.88 8.46-33 31.39-59.9 48.61-89.22 28-47.5 39.86-112.67 5.05-155.43-23.68-29-58.27-70.88-66.51-97-9.35-29.84 16.11-117.64-4-152.08-4.16-7.13-105.85-38.6-114.68-48.69-44.32-50.62-14.4-112.82-69.92-150.52-40.08-27.24-92.49-24.27-140.66-20.26-87.28 7.27-140.5 5.49-208.86 62.27" fill="#1c4342"/><g fill="none" stroke-miterlimit="10"><g stroke-width="1.02"><path d="m1067.7 138.77 1294.87 1294.87" stroke="#30cfc9"/><path d="m1275.7 785.77 1294.87 1294.87" stroke="#30cfc9"/><path d="m1059.24 232.24 1012.58 1012.47" stroke="#e3eae8"/></g><path d="m2389.14-998.34-1294.86 1294.87" stroke="#ffa47a" stroke-dasharray="12.22" stroke-width="3.05"/><path d="m2479.33-907.23-1294.86 1294.87" stroke="#ffa47a" stroke-width="1.02"/></g></g></g></g><g clip-path="url(#k)"><g clip-path="url(#l)"><g clip-path="url(#m)"><g clip-path="url(#n)"><path d="m-567.25-872.14c31.41-35.65 89.25-43.71 129.05-17.86 56.31 36.48 66.31 121.07 122.78 157.17 54.08 34.61 124.42 10.14 185-10.82s137.61-33.83 180.28 14.43c35.73 40.43 27.45 102.79 45.65 153.66 16.11 45 54.9 81.08 100.7 93.54 50.57 13.8 103.9-.22 156.12-5s112.56 3.88 142.1 47.52c23.79 35.06 20.14 81.83 34.83 121.66 25.74 69.74 100.63 105.18 168.06 135.54 32.82 14.76 67.66 32 84.51 64 32.68 61.76-18.57 133.22-66.38 183.94-28.72 30.51-58.93 62-98.17 76.31-75.11 27.52-156.19-15-235.93-20.82-105.85-7.75-204.24 49.38-298 99.59s-201.48 96.28-303.14 65.64c-66.39-20.07-119-69.82-173.88-112.49s-121-80.86-189.61-71.16c-58.49 8.28-115.25 50.65-171.42 32.37-45.5-14.84-69.52-63.1-96.07-103.16-47.67-71.83-117.86-128.15-198-158.88-66.84-25.66-149.34-41.4-179.32-106.89-18.58-40.5-10-88.47-22.23-131.36-32.38-112.7-191.41-149.93-222.21-263-14-51.39 3.87-108.08 38-148.81s82.43-67.13 132.55-84c159-53.48 333.14-17.46 494.18 29.54 43.56 12.68 88.09 26.33 133.3 22.82s70-35.58 107-62.58" fill="#e2efeb"/></g></g></g></g></svg>