<svg viewBox="0 0 20 20" xmlns="http://www.w3.org/2000/svg"><path id="instagram" fill="currentColor" d="m13.3 10c0-1.8-1.5-3.3-3.3-3.3s-3.3 1.5-3.3 3.3 1.5 3.3 3.3 3.3 3.3-1.5 3.3-3.3zm1.8 0c0 2.8-2.3 5.1-5.1 5.1s-5.1-2.3-5.1-5.1 2.3-5.1 5.1-5.1 5.1 2.3 5.1 5.1zm1.4-5.3c0 .7-.5 1.2-1.2 1.2s-1.2-.5-1.2-1.2.5-1.2 1.2-1.2 1.2.5 1.2 1.2zm-6.5-2.9c-1.5 0-4.6-.1-5.9.4-.5.2-.8.4-1.1.8s-.6.6-.8 1.1c-.5 1.3-.4 4.4-.4 5.9s-.1 4.6.4 5.9c.2.5.4.8.8 1.1s.7.6 1.1.8c1.3.5 4.4.4 5.9.4s4.6.1 5.9-.4c.5-.2.8-.4 1.1-.8s.6-.7.8-1.1c.5-1.3.4-4.4.4-5.9s.1-4.6-.4-5.9c-.2-.5-.4-.8-.8-1.1s-.7-.6-1.1-.8c-1.3-.5-4.4-.4-5.9-.4zm10 8.2c0 1.4 0 2.7-.1 4.1-.1 1.6-.4 3-1.6 4.2s-2.6 1.5-4.2 1.6c-1.4.1-2.7.1-4.1.1s-2.7 0-4.1-.1c-1.6-.1-3-.4-4.2-1.6s-1.5-2.6-1.6-4.2c-.1-1.4-.1-2.7-.1-4.1s0-2.7.1-4.1c.1-1.6.4-3 1.6-4.2s2.6-1.5 4.2-1.6c1.4-.1 2.7-.1 4.1-.1s2.7 0 4.1.1c1.6.1 3 .4 4.2 1.6s1.5 2.6 1.6 4.2c.1 1.4.1 2.7.1 4.1z"/></svg>
