<svg viewBox="0 0 20 20" xmlns="http://www.w3.org/2000/svg"><path id="language-small" d="m10 1a9 9 0 1 0 9 9 9 9 0 0 0 -9-9zm6.92 8h-3.28a17 17 0 0 0 -1.18-5.54 7 7 0 0 1 4.46 5.54zm-8.55 0a11.39 11.39 0 0 1 1.63-5.91 11.39 11.39 0 0 1 1.63 5.91zm3.26 2a11.35 11.35 0 0 1 -1.63 5.83 11.35 11.35 0 0 1 -1.63-5.83zm-4.09-7.58a17 17 0 0 0 -1.18 5.58h-3.28a7 7 0 0 1 4.46-5.58zm-4.46 7.58h3.28a17.05 17.05 0 0 0 1.18 5.55 7 7 0 0 1 -4.46-5.55zm9.38 5.55a17.05 17.05 0 0 0 1.18-5.55h3.28a7 7 0 0 1 -4.46 5.51z" fill="currentColor"/></svg>
