<svg viewBox="0 0 20 20" xmlns="http://www.w3.org/2000/svg"><g fill="currentColor" id="licensing"><circle cx="7.19" cy="7.19" r="1.4"/><path d="m17.71 13.66-4.22-4.22a6.1 6.1 0 0 0 .22-1.59 5.86 5.86 0 1 0 -5.86 5.86 6.1 6.1 0 0 0 1.59-.22l.43.42a1 1 0 0 0 .7.3h.32v.31a1 1 0 0 0 .29.71l.66.66a1 1 0 0 0 .71.29h.32v.32a1 1 0 0 0 .29.71l.5.5a1 1 0 0 0 .71.29h2.63a1 1 0 0 0 1-1v-2.63a1 1 0 0 0 -.29-.71zm-1.71 2.34h-1.13v-.82a1 1 0 0 0 -1-1h-.87l-.07-.07v-.9a1 1 0 0 0 -1-1h-.93l-.58-.58a1 1 0 0 0 -1.09-.21 3.86 3.86 0 1 1 2.1-2.1 1 1 0 0 0 .21 1.09l4.36 4.37z"/></g></svg>
