<svg viewBox="0 0 20 20" xmlns="http://www.w3.org/2000/svg"><path id="mastodon" fill="currentColor" d="m18.9 12c-.3 1.4-2.5 3-5 3.3-1.3.2-2.6.3-4 .2-2.2-.1-4-.5-4-.5v.6c.3 2.2 2.2 2.3 4 2.4s3.4-.4 3.4-.4l.1 1.6s-1.3.7-3.5.8c-1.3.1-2.8 0-4.6-.5-3.9-1-4.6-5.2-4.7-9.5 0-1.3 0-2.4 0-3.4.1-4.4 2.9-5.6 2.9-5.6 1.5-.7 3.9-1 6.5-1s5 .3 6.5 1c0 0 2.8 1.3 2.8 5.6 0 0 .1 3.2-.4 5.4zm-2.9-5.1c0-1.1-.3-1.9-.8-2.6-.6-.6-1.3-1-2.2-1-1.1 0-1.9.4-2.4 1.2l-.6 1-.5-.9c-.6-.8-1.4-1.2-2.4-1.2-.9 0-1.7.3-2.2 1-.6.6-.9 1.4-.9 2.5v5.3h2.1v-5.1c0-1.1.5-1.6 1.4-1.6 1 0 1.5.6 1.5 1.9v2.8h2v-2.8c0-1.3.5-1.9 1.5-1.9.9 0 1.4.5 1.4 1.6v5.1h2.1z"/></svg>
