<svg viewBox="0 0 24 24" xmlns="http://www.w3.org/2000/svg"><path id="notification" d="m19.55 12.75a.29.29 0 0 1 -.12-.26v-3.78a7.63 7.63 0 0 0 -6.7-7.71 7.36 7.36 0 0 0 -5.73 1.93 7.47 7.47 0 0 0 -2.43 5.5v4.06a.29.29 0 0 1 -.12.26 3.56 3.56 0 0 0 -2.4 4 3.67 3.67 0 0 0 3.66 3h2.81a3.49 3.49 0 0 0 7 0h2.81a3.67 3.67 0 0 0 3.66-3 3.56 3.56 0 0 0 -2.44-4zm-7.55 8.25a1.51 1.51 0 0 1 -1.48-1.29h3a1.51 1.51 0 0 1 -1.52 1.29zm8-4.59a1.66 1.66 0 0 1 -1.69 1.3h-12.6a1.66 1.66 0 0 1 -1.71-1.3 1.57 1.57 0 0 1 1.06-1.76 2.24 2.24 0 0 0 1.49-2.16v-4.06a5.45 5.45 0 0 1 1.78-4 5.36 5.36 0 0 1 3.67-1.43h.55a5.62 5.62 0 0 1 4.89 5.68v3.78a2.24 2.24 0 0 0 1.49 2.16 1.57 1.57 0 0 1 1.07 1.79z" fill="currentColor"/></svg>
