<svg viewBox="0 0 20 20" xmlns="http://www.w3.org/2000/svg"><g id="online-training" fill="currentColor"><path d="m18.52 13.88-1.23-2.15v-6.73a2 2 0 0 0 -2-2h-10.81a2 2 0 0 0 -2 2v6.74l-1.27 2.26a2.17 2.17 0 0 0 .12 2 2.05 2.05 0 0 0 1.74 1h13.63a2 2 0 0 0 1.73-1 2.16 2.16 0 0 0 .09-2.12zm-14.04-8.88h10.81v6h-2.62a3.13 3.13 0 0 0 -5.47 0h-2.72zm12.26 10s0 0 0 0h-13.74v-.08l1.06-1.92h11.65l1 1.81a.14.14 0 0 1 .03.19z"/><path d="m9.93 8.76a1.58 1.58 0 1 0 -1.58-1.58 1.58 1.58 0 0 0 1.58 1.58z"/></g></svg>
