<svg viewBox="0 0 1400 874" xmlns="http://www.w3.org/2000/svg" xmlns:xlink="http://www.w3.org/1999/xlink"><clipPath id="a"><path d="m.5-1072.5h1400v961h-1400z"/></clipPath><clipPath id="b"><path d="m1421.89 172.82h-1429.24v-1569h1429.24z"/></clipPath><clipPath id="c"><path d="m-1526.5.5h1400v874h-1400z"/></clipPath><clipPath id="d"><path d="m-1526.68-79.91h1397v961h-1397z"/></clipPath><clipPath id="e"><path d="m-1543.18-693.41h1433v1569h-1433z"/></clipPath><clipPath id="f"><path d="m0 0h1400v874h-1400z"/></clipPath><clipPath id="g"><path d="m.5-86.5h1400v961h-1400z"/></clipPath><clipPath id="h"><path d="m1421.89 1158.82h-1429.24v-1569h1429.24z"/></clipPath><g clip-path="url(#a)"><g clip-path="url(#b)"><path d="m1466.21 214.82h-1523v-1745h1523z" fill="#18514f"/><path d="m1256.62-816.8a320.93 320.93 0 0 0 -118.9 126.92c-11.51 22.27-20.64 47.51-16.19 72.22 5.65 31.62 32.14 56.2 38.38 87.66 6.68 33.48-10.76 66.65-28.57 95.75a1513.39 1513.39 0 0 1 -220.67 280.42c-26.5 26.49-56.41 63.09-40.53 97.16 12.92 27.75 49.66 35.4 67.7 60 29.17 39.86-4.23 97.31 7.94 145.33 10.69 42.31 56 68.06 99.31 70.59s85.36-12.84 126.4-26.87 84.39-27 127.15-19.67c85.65 14.7 142.36 105.4 227.42 123.36 29.61 6.23 60.49 3 90.11-3.49 61.38-13.44 120.76-41.49 164.33-87.06s69.84-109.78 62.57-172.65c-7.87-67.39-52.26-132.27-35.41-197.88 8.46-33 31.4-59.9 48.62-89.22 28-47.5 39.86-112.67 5-155.42-23.68-29-58.27-70.89-66.51-97-9.35-29.83 16.11-117.64-4-152.08-4.16-7.13-105.85-38.6-114.68-48.69-44.32-50.62-14.41-112.81-69.93-150.52-40.08-27.24-92.48-24.27-140.65-20.26-87.29 7.27-140.5 5.5-208.86 62.27" fill="#1c4342"/><g fill="none"><g stroke-miterlimit="10"><path d="m-458.3-846.23 1294.87 1294.87" stroke="#30cfc9" stroke-width="1.02"/><path d="m-250.3-199.23 1294.87 1294.87" stroke="#30cfc9" stroke-width="1.02"/><path d="m186.09-940.52 1073.55 1074.16" stroke="#e3eae8" stroke-dasharray="12.22" stroke-width="3.05"/><path d="m39.6-1235.12 1294.86 1294.86" stroke="#294040" stroke-width="3.05"/><path d="m-466.76-752.76 1012.58 1012.47" stroke="#e3eae8" stroke-width="1.02"/><path d="m75.57-491.1 1294.87 1294.87" stroke="#e3eae8" stroke-dasharray="12.22 12.22" stroke-width="1.02"/><path d="m226.75-8.73-118.09 118.08" stroke="#face00" stroke-width="5.09"/><path d="m1808.87-1034.69-1294.86 1294.86" stroke="#ffa47a" stroke-width="1.02"/><path d="m1716.2-1129.25-1294.76 1294.76" stroke="#ffa47a" stroke-dasharray="12.22 12.22" stroke-width="1.02"/><path d="m1834.14-1014.42-1294.86 1294.86" stroke="#face00" stroke-dasharray="4.07 4.07" stroke-width="2.04"/></g><path d="m1911.49-960.54-1326.32 1294.86" stroke="#ffa47a" stroke-dasharray="12.22" stroke-width="3.05"/><path d="m1436.03-366.53-1294.86 1294.86" stroke="#ffa47a" stroke-dasharray="4.07 4.07" stroke-miterlimit="10" stroke-width="2.04"/><path d="m2274.16-1070.96-1294.76 1294.76" stroke="#ffa47a" stroke-miterlimit="10" stroke-width="1.02"/><path d="m-84.91-202.52 1073.55 1074.16" stroke="#e3eae8" stroke-dasharray="12.22" stroke-miterlimit="10" stroke-width="3.05"/><path d="m53.75-654.47 997.41 997.41" stroke="#294040" stroke-miterlimit="10" stroke-width="3.05"/></g></g></g><g clip-path="url(#c)"><g clip-path="url(#d)"><g clip-path="url(#e)"><path d="m-1008.47-85.33c10.1-122.54 40.68-225.93 73.94-342.56 18-63.27 40-126.46 76.75-177.27s90.53-88 147-85.72c67.12 2.7 124 58.58 168.14 118.31s82.87 127.77 139.64 170.05c64.42 48 145.18 56.89 220.69 45.13s147.86-42.28 220.81-68.27c107.59-38.2 218.85-66.88 331-62.81s226 43.28 312.14 128.31c45.53 45 83.77 105.85 89 175.66 7 92.86-45.66 178.58-108 235.77-37.33 34.29-83.12 70-86.73 125.62-1.83 28.59 8.4 56 14.5 83.71 20 90.49-6.56 191.35-62.12 257.93s-137.18 99.24-216.16 93.94c-70-4.69-140.13-37-208.62-19-58.86 15.53-106.03 65.74-153.4 110.1-97.56 91.44-206.62 164.65-323.28 217-29.39 13.15-60.16 25.14-91.52 22.68-97-7.61-163.48-146.91-260.5-139.92-69.54 5-117.83 83.49-182.18 114.85-102.08 49.82-214.46-26.9-304.53-102.47-31.49-26.37-65.67-58.5-69.67-103.86-8.52-96.94 116.45-132.69 144.92-224.25 23.55-75.72-26.9-152.29-67.7-217s-72-164.36-21.26-218.33c34.61-36.75 87.39-28.44 133.61-34.52s76.36-48.58 83.31-102.78" fill="#c9f8db"/><g fill="none" stroke="#294040" stroke-miterlimit="10"><circle cx="-146.98" cy="704.28" r="239.81" stroke-width=".43"/><g stroke-linecap="square"><circle cx="-146.98" cy="704.28" r="193.56" stroke-width="1.71"/><circle cx="-146.98" cy="704.28" r="147.31" stroke-width="2.57"/></g></g><circle cx="292.52" cy="96.78" fill="#dafae6" r="165.31"/><path d="m292.36 80.69a16.09 16.09 0 1 1 -15.94 16.24 16.1 16.1 0 0 1 15.94-16.24z" fill="#294040"/><g fill="none" stroke="#294040" stroke-linecap="square" stroke-miterlimit="10"><circle cx="292.52" cy="96.78" r="46.81" stroke-dasharray="8.65 12.36" stroke-width="4.43"/><circle cx="292.52" cy="96.78" r="86.31" stroke-dasharray="13.05 11.6" stroke-width="3.57" transform="matrix(.70710678 -.70710678 .70710678 .70710678 17.24 235.19)"/><circle cx="292.52" cy="96.78" r="125.81" stroke-dasharray="17.57 11.71" stroke-width="2.2" transform="matrix(.70710678 -.70710678 .70710678 .70710678 17.24 235.19)"/></g></g></g></g><g clip-path="url(#f)"><g clip-path="url(#g)"><g clip-path="url(#h)"><path d="m1466.21 1200.82h-1523v-1745h1523z" fill="#18514f"/><path d="m1256.62 169.2a320.93 320.93 0 0 0 -118.9 126.92c-11.51 22.27-20.64 47.51-16.19 72.22 5.65 31.62 32.14 56.2 38.38 87.66 6.68 33.48-10.76 66.65-28.57 95.75a1513.39 1513.39 0 0 1 -220.67 280.42c-26.5 26.49-56.41 63.09-40.53 97.16 12.92 27.75 49.66 35.4 67.7 60 29.17 39.86-4.23 97.31 7.94 145.33 10.69 42.31 56 68.06 99.31 70.59s85.36-12.84 126.4-26.87 84.39-27 127.15-19.67c85.65 14.7 142.36 105.4 227.42 123.36 29.61 6.23 60.49 3 90.11-3.49 61.38-13.44 120.76-41.49 164.33-87.06s69.84-109.78 62.57-172.65c-7.87-67.39-52.26-132.27-35.41-197.88 8.46-33 31.4-59.9 48.62-89.22 28-47.5 39.86-112.67 5-155.42-23.68-29-58.27-70.89-66.51-97-9.35-29.83 16.11-117.64-4-152.08-4.16-7.13-105.85-38.6-114.68-48.69-44.32-50.62-14.41-112.81-69.93-150.52-40.08-27.24-92.48-24.27-140.65-20.26-87.29 7.27-140.5 5.5-208.86 62.27" fill="#1c4342"/><path d="m24.48-640.53a320.8 320.8 0 0 0 -118.9 126.92c-11.51 22.27-20.64 47.5-16.18 72.22 5.64 31.62 32.13 56.19 38.37 87.66 6.68 33.47-10.77 66.65-28.57 95.73a1513.32 1513.32 0 0 1 -220.67 280.43c-26.53 26.5-56.41 63.09-40.53 97.16 12.91 27.76 49.65 35.41 67.69 60 29.17 39.86-4.23 97.31 7.94 145.33 10.69 42.31 56 68.06 99.31 70.59s85.36-12.85 126.41-26.87 84.4-26.97 127.15-19.64c85.66 14.69 142.36 105.39 227.42 123.36 29.62 6.23 60.49 3 90.11-3.49 61.38-13.44 120.76-41.49 164.33-87.07s69.84-109.77 62.57-172.64c-7.87-67.39-52.25-132.27-35.4-197.88 8.46-33 31.39-59.9 48.61-89.22 28-47.5 39.86-112.67 5.05-155.43-23.68-29-58.27-70.88-66.51-97-9.35-29.84 16.11-117.64-4-152.08-4.16-7.12-105.85-38.55-114.68-48.68-44.32-50.62-14.4-112.82-69.92-150.52-40.08-27.24-92.49-24.27-140.66-20.26-87.28 7.27-140.5 5.49-208.86 62.27" fill="#1c4342"/><circle cx="1415.9" cy="5.27" fill="#e3eae8" r="19.65"/><path d="m-458.3 139.77 1294.87 1294.87" fill="none" stroke="#30cfc9" stroke-miterlimit="10" stroke-width="1.02"/><path d="m-250.3 786.77 1294.87 1294.87" fill="none" stroke="#30cfc9" stroke-miterlimit="10" stroke-width="1.02"/><path d="m-99.66-109.87 315.27 315.17" fill="none" stroke="#e3eae8" stroke-miterlimit="10" stroke-width="3.05"/><circle cx="156.26" cy="145.95" fill="none" r="33.29" stroke="#c9f8db" stroke-dasharray="5.51 5.51" stroke-miterlimit="10" stroke-width="3.05"/><circle cx="156.46" cy="146.16" r="20.77" style="fill:none;stroke-miterlimit:10;stroke-width:3.05;stroke:#c9f8db;stroke-dasharray:5.43 5.43;opacity:.8"/><circle cx="156.16" cy="145.85" fill="#face00" r="10.28"/><g fill="none" stroke-miterlimit="10"><path d="m846.04-220.82 315.27 315.16" stroke="#e3eae8" stroke-width="3.05"/><path d="m186.09 45.48 1073.55 1074.16" stroke="#e3eae8" stroke-dasharray="12.22" stroke-width="3.05"/><path d="m576.09-1046.52 1073.55 1074.16" stroke="#e3eae8" stroke-dasharray="12.22" stroke-width="3.05"/><path d="m39.6-249.12 1294.86 1294.86" stroke="#294040" stroke-width="3.05"/><path d="m404.24-613.76 1012.58 1012.47" stroke="#e3eae8" stroke-width="1.02"/><path d="m-466.76 233.24 1012.58 1012.47" stroke="#e3eae8" stroke-width="1.02"/><path d="m220.7 211.41 16.28 16.29" stroke="#e3eae8" stroke-width="3.05"/><path d="m1166.4 100.45 16.28 16.29" stroke="#e3eae8" stroke-width="3.05"/><path d="m242.07 232.78 50.9 50.9" stroke="#e3eae8" stroke-width="3.05"/><path d="m1187.77 121.83 50.9 50.89" stroke="#e3eae8" stroke-width="3.05"/><path d="m452.04 565.18 315.27 315.16" stroke="#e3eae8" stroke-width="3.05"/><path d="m298.57-508.1 1294.87 1294.87" stroke="#e3eae8" stroke-dasharray="12.22 12.22" stroke-width="1.02"/><path d="m75.57 494.9 1294.87 1294.87" stroke="#e3eae8" stroke-dasharray="12.22 12.22" stroke-width="1.02"/><circle cx="1153.26" cy="346.95" r="33.29" stroke="#c9f8db" stroke-dasharray="5.51 5.51" stroke-width="3.05"/><circle cx="1153.46" cy="347.15" opacity=".8" r="20.77" stroke="#c9f8db" stroke-dasharray="5.43 5.43" stroke-width="3.05"/></g><circle cx="1153.16" cy="346.85" fill="#face00" r="10.28"/><g fill="none"><path d="m656.29-73.83 197.99 198" stroke="#e3eae8" stroke-dasharray="4.07 4.07" stroke-miterlimit="10" stroke-width="2.04"/><path d="m555.71-754.04 786.79 786.28" stroke="#e3eae8" stroke-miterlimit="10" stroke-width="1.02"/><path d="m600.61-810.13 1294.76 1294.86" stroke="#e3eae8" stroke-miterlimit="10" stroke-width="3.05"/><path d="m863.14-997.34-1294.86 1294.87" stroke="#ffa47a" stroke-dasharray="12.22" stroke-miterlimit="10" stroke-width="3.05"/><path d="m953.33-906.23-1294.86 1294.87" stroke="#ffa47a" stroke-miterlimit="10" stroke-width="1.02"/><path d="m567.27 225-544.16 528.28" stroke="#ffa47a" stroke-width="1.02"/><g stroke-miterlimit="10"><path d="m378.48-73.63-191.38 191.38" stroke="#face00" stroke-width="5.09"/><path d="m128.06 176.8-140.48 140.48" stroke="#face00" stroke-width="5.09"/><path d="m1129.75 373.27-118.09 118.08" stroke="#face00" stroke-width="5.09"/><path d="m1424.96 72.96-237.19 237.19" stroke="#face00" stroke-width="5.09"/><path d="m521.96 676.96-237.19 237.19" stroke="#face00" stroke-width="5.09"/><path d="m1350.24-509.32-859.78 860.19" stroke="#ffa47a" stroke-dasharray="4.07 4.07" stroke-width="2.04"/><path d="m1627.13-521.53-859.78 860.18" stroke="#294040" stroke-width="3.05"/><path d="m702.2 191.05-742.99 742.58" stroke="#face00" stroke-dasharray="0 16.21" stroke-linecap="round" stroke-width="5.4"/><path d="m1808.87-48.69-1294.86 1294.86" stroke="#ffa47a" stroke-width="1.02"/><path d="m1716.2-143.25-1294.76 1294.76" stroke="#ffa47a" stroke-dasharray="12.22 12.22" stroke-width="1.02"/><path d="m1834.14-28.42-1294.86 1294.86" stroke="#face00" stroke-dasharray="4.07 4.07" stroke-width="2.04"/></g><path d="m1911.49 25.46-1326.32 1294.86" stroke="#ffa47a" stroke-dasharray="12.22" stroke-width="3.05"/><path d="m1174.03-685.53-1294.86 1294.86" stroke="#ffa47a" stroke-dasharray="4.07 4.07" stroke-miterlimit="10" stroke-width="2.04"/><path d="m1436.03 619.47-1294.86 1294.86" stroke="#ffa47a" stroke-dasharray="4.07 4.07" stroke-miterlimit="10" stroke-width="2.04"/><path d="m1453.16-386.96-1294.76 1294.76" stroke="#ffa47a" stroke-miterlimit="10" stroke-width="1.02"/><path d="m865.07 275.54 16.29 16.29" stroke="#e3eae8" stroke-miterlimit="10" stroke-width="3.05"/><path d="m799.92 210.39 58.03 58.02" stroke="#e3eae8" stroke-miterlimit="10" stroke-width="3.05"/><path d="m887.47 297.94 196.47 196.46" stroke="#e3eae8" stroke-miterlimit="10" stroke-width="3.05"/></g><circle cx="784.76" cy="55.15" fill="#e3eae8" r="19.65"/><circle cx="678.48" cy="387.92" fill="#ff621a" r="12.32"/><path d="m2274.16-84.96-1294.76 1294.76" fill="none" stroke="#ffa47a" stroke-miterlimit="10" stroke-width="1.02"/><circle cx="315.06" cy="173.13" fill="#ff621a" r="12.32"/><path d="m-84.91 783.48 1073.55 1074.16" fill="none" stroke="#e3eae8" stroke-dasharray="12.22" stroke-miterlimit="10" stroke-width="3.05"/><path d="m53.75 331.53 997.41 997.41" fill="none" stroke="#294040" stroke-miterlimit="10" stroke-width="3.05"/><circle cx="252.13" cy="531.28" fill="#e3eae8" r="19.65"/><circle cx="392.78" cy="672.42" fill="#18514f" opacity=".75" r="18.43"/></g></g></g></svg>