<svg xmlns="http://www.w3.org/2000/svg" viewBox="0 0 32 32"><path id="pcc" fill="currentColor" d="M28.64,19.71,23.45,4.8a1.71,1.71,0,1,0-2.61,0L16,18.72,11.17,4.84a1.67,1.67,0,0,0,.39-1.07,1.71,1.71,0,0,0-3.41,0,1.66,1.66,0,0,0,.38,1.07L3.36,19.71a1.71,1.71,0,1,0,1.81,2.54H6.35a1.74,1.74,0,0,0,.71.66v3.85a1.7,1.7,0,1,0,2.2,2.41h1.18a1.71,1.71,0,1,0,2.21-2.41V22.91a1.74,1.74,0,0,0,.71-.66h1.18a1.69,1.69,0,0,0,2.92,0h1.18a1.74,1.74,0,0,0,.71.66v3.85a1.71,1.71,0,1,0,2.21,2.41h1.18a1.7,1.7,0,1,0,2.2-2.41V22.91a1.74,1.74,0,0,0,.71-.66h1.18a1.7,1.7,0,1,0,1.81-2.54Zm-1.81.79H25.65a1.69,1.69,0,0,0-1.45-.83,1.7,1.7,0,0,0-1,3.08v4.17a1.54,1.54,0,0,0-.45.5H21.56a1.7,1.7,0,0,0-.46-.5V22.75a1.68,1.68,0,0,0,.7-1.37,1.7,1.7,0,0,0-3.16-.88H17.46l-.15-.21L22.15,6.37,27,20.29Zm-12.29,0H13.36a1.7,1.7,0,0,0-3.16.88,1.68,1.68,0,0,0,.7,1.37v4.17a1.7,1.7,0,0,0-.46.5H9.26a1.54,1.54,0,0,0-.45-.5V22.75a1.7,1.7,0,0,0-1-3.08,1.69,1.69,0,0,0-1.45.83H5.17L5,20.29,9.85,6.37,14.7,20.29Z"/></svg>