<svg viewBox="0 0 20 20" xmlns="http://www.w3.org/2000/svg"><g fill="currentColor" id="policy-maker"><path d="m17 16a1.17 1.17 0 0 1 -1.17-1.17 1 1 0 0 0 -1-1h-.08a1 1 0 0 0 -1 1 1.14 1.14 0 1 1 -2.28 0 1 1 0 0 0 -2 0 1.17 1.17 0 0 1 -1.17 1.17h-5.21a1 1 0 0 0 0 2h5.21a3.14 3.14 0 0 0 2.17-.87 3.15 3.15 0 0 0 2 .86h.18a3.17 3.17 0 0 0 2.09-.89 3.18 3.18 0 0 0 2.26.9 1 1 0 0 0 0-2z"/><path d="m3 14.93 3.21-.14a1 1 0 0 0 .67-.3l8.53-8.67a1 1 0 0 0 0-1.4l-2.9-2.93a1 1 0 0 0 -1.41 0l-.92.92-.75-.76a1.92 1.92 0 0 0 -2.64 0l-2.64 2.64a1 1 0 0 0 0 1.42 1 1 0 0 0 .71.29 1 1 0 0 0 .71-.29l2.54-2.55.66.66-6.27 6.27a1 1 0 0 0 -.29.64l-.21 3.13a1 1 0 0 0 .28.77 1 1 0 0 0 .72.3zm8.81-11.32 1.52 1.52-2.07 2.1-1.54-1.54zm-7.63 7.62 4.13-4.12 1.54 1.55-4.08 4.15-1.7.07z"/></g></svg>
