<svg viewBox="0 0 20 20" xmlns="http://www.w3.org/2000/svg"><path id="reddit" fill="currentColor" d="m12.2 13c.1.1.1.3 0 .3-.6.6-1.9.7-2.2.7s-1.6 0-2.2-.6c-.1-.1-.1-.2 0-.3s.2-.1.3 0c.4.4 1.3.5 1.9.5s1.5-.1 1.9-.5c.1-.2.2-.2.3-.1zm-3.4-2c0 .5-.4 1-1 1s-1-.4-1-1 .4-1 1-1c.5 0 1 .4 1 1zm4.4 0c0 .5-.4 1-1 1-.5 0-1-.4-1-1s.4-1 1-1 1 .4 1 1zm2.8-1.3c0-.7-.6-1.3-1.3-1.3-.4 0-.7.2-1 .4-.9-.6-2.1-1-3.5-1.1l.7-3.2 2.3.5c0 .5.4 1 1 1s1-.5 1-1-.4-1-1-1c-.4 0-.7.2-.9.6l-2.5-.6c-.1 0-.2.1-.3.2l-.7 3.5c-1.4 0-2.6.4-3.5 1.1-.2-.3-.6-.4-1-.4-.7-.1-1.3.5-1.3 1.3 0 .5.3 1 .8 1.2 0 .2-.1.4-.1.6 0 2.1 2.4 3.8 5.3 3.8s5.3-1.7 5.3-3.8c0-.2 0-.4-.1-.6.5-.3.8-.7.8-1.2zm4 .3c0 5.5-4.5 10-10 10s-10-4.5-10-10 4.5-10 10-10 10 4.5 10 10z"/></svg>
