<svg xmlns="http://www.w3.org/2000/svg" viewBox="0 0 32 32"><g id="resources" fill="currentColor"><circle cx="3.7" cy="10.9" r="1.7"/><circle cx="3.7" cy="25.3" r="1.7"/><circle cx="28.3" cy="10.9" r="1.7"/><circle cx="24.3" cy="5.7" r="1.7"/><circle cx="24.3" cy="20.3" r="1.7"/><circle cx="28.3" cy="25.3" r="1.7"/><path d="m16.7 27.7c-.2 0-.3 0-.4-.1l-2.7-1.3c-.8-.4-1.7-.6-2.7-.6h-5.5c-1.2 0-2.2-1-2.2-2.2v-11.3c0-1.2 1-2.2 2.2-2.2h5.5c1.2 0 2.5.3 3.6.9l2.1 1 6.8-6.6c.2-.3.6-.4 1-.2.4.1.6.5.6.9v4h1.9c.6 0 1.2.2 1.6.7.4.4.7 1 .6 1.6v11.1c0 1.2-1 2.2-2.2 2.2h-6.8l-2.9 1.9c-.1.1-.3.2-.5.2zm-5.8-4.1c1.2 0 2.5.3 3.6.8l2.1 1 6.5-5.9v-11.1l-5.6 5.5c-.3.3-.8.4-1.1.2l-2.7-1.4c-.8-.4-1.8-.6-2.7-.6h-5.6c-.1 0-.2.1-.2.2v11.2c0 .1.1.2.2.2h5.5c0-.1 0-.1 0-.1zm10.7 0h5.4c.1 0 .2-.1.2-.2v-11.1c0-.1 0-.2-.1-.2s-.1-.1-.2-.1h-1.9v8c0 .3-.1.5-.3.7z"/><path d="m16.6 12.9v13"/><path d="m15.6 12.9h2v13h-2z"/></g></svg>
