<svg viewBox="0 0 24 24" xmlns="http://www.w3.org/2000/svg"><g id="sector" fill="currentColor"><path d="m11.41 22.86h-6.41l-3.28-5.59 3.28-5.59h6.46l3.22 5.59zm-5.3-2h4.14l2.08-3.59-2.08-3.59h-4.14l-2.11 3.59z"/><path d="m19.44 18.09h-6.44l-3.25-5.59 3.25-5.59h6.46l3.22 5.59zm-5.3-2h4.14l2.08-3.59-2.08-3.59h-4.14l-2.08 3.59z"/><path d="m11.44 13.68h-6.44l-3.24-5.59 3.24-5.59h6.45l3.23 5.59zm-5.3-2h4.15l2.07-3.59-2.07-3.59h-4.15l-2.07 3.59z"/><path d="m9.18 6.32h-2l-1 1.73 1 1.73h2l1-1.73z"/><path d="m9.18 15.54h-2l-1 1.73 1 1.74h2l1-1.74z"/></g></svg>
