<svg height="3274" viewBox="0 0 1397 3274" width="1397" xmlns="http://www.w3.org/2000/svg" xmlns:xlink="http://www.w3.org/1999/xlink"><mask id="a" fill="#fff"><path d="m.8 0h1397v3274h-1397z" fill="#fff" fill-rule="evenodd"/></mask><g fill="none" fill-rule="nonzero" transform="translate(-1421)"><path d="m1420.8 0h1400v3274h-1400z" fill="#e3eae8"/><g mask="url(#a)" transform="translate(1420)"><g transform="translate(-744 -594)"><path d="m2378.9 311.9c-7.9-58.4-21.8-115.9-41.4-171.4-15.1-42.2-33.9-83-62.3-110.4-28.4-27.4-67.6-39.4-102.5-21.1-45 23.8-76.6 92.7-123.9 98.8-16.2 2.1-31.8-4-46.9-10-35.9-14.2-71.9-28.4-107.9-42.6-41.2-16.3-84.2-32.7-128.3-23.2s-89.3 53.3-95.8 111.4c-5.2 47.5 12.1 106.1-17.7 136.2-13 13.1-30 13.9-45.7 14-49.6.4-99.2.8-148.9 1.3-28.6.3-58.4.8-85 17.5s-49.3 54.4-45 91.2c5.8 49 50.2 65 86.7 75.8s79.3 40.3 72.9 90.5c-6.2 48.5-54.9 73.3-66.3 120.7-8 33.2 6.2 68.2 27.5 85.2s48.1 19.8 73.9 18.8c27.2-1.1 55.7-5.6 80.3 6.9s43.6 49.8 32.1 83.5c-9.7 28.4-38.1 50.5-33.2 79.4 3.4 20.2 21.3 27.1 36.8 31.1l149.2 38.3c13.1 3.4 27.2 7.7 34.5 22 10.4 20.5 1.3 49.4.3 75-2.7 68.2 51.2 107 97.8 131.5 32.7 17.2 68.3 34.7 104.1 22.7 34.9-11.7 62.6-48.8 93.7-74.4 74.6-61.3 168.1-53.4 245.7-16.3s144.9 100.1 219 146.5c87.5 54.7 184.5 85.8 284 91.3 28.8 1.6 66.1-6.2 76.1-43.2 11.2-41-22.6-76.1-21.9-118.5 1.1-54.8 53.9-82.6 95.5-89.9s93.5-20.5 107.2-73.6c12.1-46.8-17-90.6-48.5-111.9-33.9-22.9-72.8-32.6-107.2-54.8s-65.3-62.4-65.2-114.4c0-82.1 75.5-153.3 64.4-232.9-6.6-47.2-41.6-74.4-74.9-92.2-42.8-23-88.9-39.2-136.6-48.2-33.7-6.3-70.4-10.2-94.4-40.2-17-21.3-24.4-52.3-32.6-81.7-13.1-47.4-29.7-94.7-59-126.1s-73.8-43.4-109.1-16.4c-40.5 31-60.1 104.2-104.4 121.5" fill="#c5fdf9"/><path d="m2667.9 2038.8c87.8-16.4 170.7-84.5 227.7-186.7 12.8-23 24.9-50 24.41498-80-1.11498-93.9-110.21498-115.2-113.61498-209-1.1-29.1 9.3-56.6 10.2-85.8 2.5-82.4-67.3-125.7-121.4-116s-108.7 46.6-161 23.2c-72-32.1-112-167.3-186.2-184-24.6-5.5-51.8 2.5-72.8-17.8-31.7-30.6-27.6-100.7-38-155.4-13.1-69-54.2-120.3-99.4-141.8s-94-17-140.4-3.6c-22.4 6.5-50.8 11.4-63.3-17.8-6-14-6-31.9-10.3-47.1-15.1-53.1-65.7-44.2-102.1-28.3s-89.2 15.8-98-40.4c-5.2-33.2 10.4-68.4 3.7-101.1-4.3-21.2-17-35.6-29.5-47.1-54.7-50.2-121.3-69.8-184.2-54.4-74.4 18.2-162.9 76.9-215.9-4.8-12.8-19.9-21.2-45.6-34.6-64.3-52.9-73.9-134.3 1.4-205.2 16.8-42.3 9.1-85.1-5.1-127.6-13.2s-88.1-8.8-124.8 24-59 109.7-37 165.3c6.2 15.6 15.6 29.8 16 47.9.7 32.2-25.4 47.5-46.2 53.3-138.2 38.8-280 71.5-404.6 169.4-19 14.9-39.6 36.2-41 68.5-.9 20.4 6.3 39.4 9.8 59.2 16.1 90.3-44.7 166.3-99.6 208.2s-120.4 95.4-123.5 188.5c-2.4 71 34.7 130.8 73 172.1 71.8 77.5 158 124.3 245.8 133.3 73.9 7.6 160.1-3.8 209.2 80.7 57.9 99.7 21.2 261 57.9 381.6 45.5 149.6 180.6 174 286.3 138.2s211.2-110.1 317.7-78c102 30.8 192.9 157.3 295.6 134.2 88.2-19.9 154.7-147.2 243.7-157.9 75.1-9 143.1 67.8 217.4 88 158.1 42.8 310.7-174.4 467.6-121.4 33.5 11.4 65.1 34.8 98.8 44.6s72.8 3 95.2-36.5c35.1-62.3 9-157.4-18.3-228.7" fill="#e3eae8"/><path d="m2700.8 3532.3c87.8-15.7 170.7-81 227.7-179 12.8-22 24.9-47.9 24.41498-76.7-1.11498-90.2-110.21498-110.5-113.61498-200.4-1.1-27.9 9.3-54.2 10.2-82.3 2.5-79-67.3-120.5-121.4-111.2s-108.7 44.6-160.9 22.3c-72-30.8-112-160.5-186.2-176.4-24.6-5.2-51.8 2.4-72.8-17-31.7-29.4-27.6-96.6-38-149-13.1-66.2-54.2-115.4-99.4-136s-94-16.3-140.4-3.5c-22.4 6.2-50.8 10.9-63.3-17-6-13.4-6-30.6-10.3-45.2-15.1-50.9-65.7-42.3-102.1-27.2s-89.2 15.2-98-38.7c-5.2-31.9 10.4-65.6 3.7-96.9-4.3-20.3-17-34.2-29.5-45.2-54.8-48.1-121.3-66.9-184.3-52.2-74.5 17.5-162.9 73.8-215.9-4.6-12.8-18.9-21.2-43.6-34.5-61.4-52.9-70.8-134.3 1.3-205.3 16-42.3 8.7-85.1-4.9-127.6-12.7s-88.1-8.4-124.8 23-59 105.1-36.9 158.5c6.2 15 15.6 28.6 16 46 .7 30.9-25.3 45.5-46.2 51.1-138.2 37.2-280 68.6-404.6 162.4-19 14.3-39.6 34.7-41 65.7-.9 19.5 6.3 37.8 9.8 56.8 16.1 86.5-44.7 159.5-99.6 199.6s-120.3 91.2-123.4 180.6c-2.4 68.1 34.7 125.4 73 165 71.9 74.3 158 119.2 245.8 127.8 73.9 7.3 160.1-3.6 209.2 77.4 57.9 95.6 21.2 250.3 57.9 365.9 45.5 143.4 180.6 166.8 286.3 132.5s211.2-105.6 317.7-74.8c102 29.6 192.9 150.8 295.6 128.7 88.2-19.1 154.7-141.1 243.7-151.4 75.1-8.6 143.1 65.1 217.4 84.4 158.1 41 310.7-167.2 467.6-116.4 33.5 10.9 65.1 33.4 98.8 42.8s72.8 2.8 95.2-35c35.1-59.7 9-151-18.3-219.3" fill="#e3eae8"/><path d="m732 2063.6c73.4-66 183.9-68.5 259.5-5.7 11 9.1 21.6 20.1 26.7 34.6 19 54-46.3 101.8-47 160.2-.6 50.8 45.2 81.9 82.7 107.7 27.1 18.7 52.6 39.7 76 62.9 11 10.8 22.5 26 18.2 42-1.9 7-6.8 12.4-11.9 16.7-27.1 22.8-63.4 21.3-95.6 31.3s-65.6 45.5-54.3 82.1c11.4 36.9 58.8 43.7 70.9 80.2 10.2 30.6-11.8 64.8-37.8 77.2s-55.3 10.6-83.1 15.2-58 19.4-68.2 50c-17.4 52.7 33.2 119.9 2.7 163.6-24.6 35.2-73.2 13.6-111.2 23.4-34.5 8.9-59.4 44.6-92.1 60.3-26.8 12.9-57 11.5-85.9 9.3-24.5-1.9-50-4.5-71.2-19-24.2-16.6-39.5-46.2-59.4-69.4-40.6-47.8-99.3-67.6-156.1-78.6s-115.4-15.5-168.9-40c-29.4-13.5-57.5-33.5-77-62.7s-29.7-68.1-22-104.2c15.8-74 91.8-102 137.4-156.5 7.4-8.9 14.2-18.9 17-30.8 6-25.4-7.6-51.2-21.8-71.6-28.9-41.6-63.3-77.6-93.2-118.3s-55.9-87.6-63.6-140.4 6.5-112.6 43.7-143.9c61-51.3 152.2-9.8 217.5-53.1 21.4-14.2 37.9-36.2 56.9-54.3s43.1-32.8 67.3-27.8c56.1 11.5 72.7 115.6 129.4 121.1 24.6 2.5 46.7-15.7 68.2-29.9s49.1-25.3 69.8-9.7c15.9 12 21.8 35.1 31.3 54.1s29.7 36 46.1 25.2" fill="#c5fdf9"/><path d="m1149.2 3996.9c98.5 7 177 84.6 184.4 182.6 1.1 14.2.6 29.5-6.3 43.3-25.6 51.1-105.4 37.4-147.8 77.5-36.9 34.9-27.5 89.4-19.9 134.3 5.4 32.5 8 65.4 7.6 98.4-.1 15.4-3 34.3-17.6 42.3-6.3 3.5-13.6 3.7-20.2 3-35.2-3.7-59.3-30.8-89-47s-78.3-15.5-96.8 18c-18.6 33.8 9.4 72.6-8.4 106.8-15 28.6-54.8 36.5-81.8 26.5-27.1-10.1-46-32.4-68.7-49.2s-54.2-28.2-83.3-14.2c-49.9 24.1-63.1 107.3-115.7 115.6-42.4 6.8-60.7-43.2-94.1-63.6-30.4-18.6-73.3-11.7-107.3-24.3-27.9-10.4-47.9-33-66.4-55.3-15.7-19-31.5-39.1-35.9-64.4-4.9-28.9 5.8-60.5 8.7-91 6.1-62.4-20.4-118.3-51.9-166.9s-69.1-93.7-88.6-149.3c-10.8-30.5-15.8-64.6-8.5-98.9s28.3-68.8 59.6-88.3c64.2-40.1 137.1-4.9 208-9.9 11.5-.9 23.4-2.9 34-9.2 22.5-13.4 31.5-41 36.3-65.5 9.8-49.7 11.9-99.4 20.3-149.3s24.2-101.1 56.8-143.3 85.4-73.6 133.8-68.6c79.2 8.2 112.8 102.6 189.4 119.5 25 5.5 52.4 2.1 78.6 3.2s53.6 8.2 66.8 29c30.7 48.3-32.5 132.6 2.9 177.2 15.3 19.5 43.7 22.7 68.9 28.2s52.4 17.7 55.5 43.5c2.4 19.7-10.1 40-17.1 60.1s-5.2 46.4 14 50.6" fill="#f9f9f7"/><path d="m677.1 235.5c73.4-66 253.8-68.5 329.3-5.7 11 9.1 21.7 20 26.8 34.6 19 54-46.3 101.8-47 160.2-.6 50.8 45.2 81.9 82.7 107.7 27.1 18.7 52.6 39.7 76 62.9 11 10.8 22.5 26 18.2 42-1.9 7-6.8 12.4-11.9 16.7-27.2 22.6-63.4 21.1-95.6 31.2s-65.6 45.5-54.3 82.1c11.4 36.9 58.8 43.7 70.9 80.2 10.2 30.6-11.8 64.8-37.8 77.2s-55.3 10.6-83.1 15.2-58 19.4-68.1 50c-17.4 52.7 33.2 119.9 2.7 163.5-24.7 35.2-73.2 13.6-111.2 23.5-34.5 8.9-59.4 44.6-92.1 60.3-26.8 12.9-57 11.5-85.9 9.3-24.6-1.9-50-4.5-71.2-19-24.2-16.6-39.5-46.2-59.4-69.5-40.6-47.8-99.3-67.6-156.1-78.6s-115.4-15.5-168.9-40c-29.4-13.5-57.5-33.5-77-62.7s-29.7-68.2-22-104.2c15.8-74 91.8-102 137.4-156.5 7.4-8.9 14.2-18.9 17-30.8 6-25.4-7.6-51.2-21.8-71.6-28.9-41.6-63.3-77.6-93.2-118.3s-55.9-87.6-63.6-140.4 6.5-112.6 43.7-143.9c61-51.3 152.2-9.8 217.5-53.1 21.4-14.2 37.9-36.2 56.9-54.3s43-32.8 67.1-27.8c56.1 11.5 72.7 115.6 129.4 121.1 24.6 2.5 46.7-15.7 68.2-29.9s49.1-25.3 69.8-9.7c15.9 12 21.8 35.1 31.3 54.1s29.7 36 46.1 25.1" fill="#f9f9f7"/><path d="m2681.3 3608.1c5.6-58.7 5.2-117.8-1.3-176.3-5.1-44.5-14.2-88.6-35.5-121.6s-56.8-53.6-94.9-43.7c-49.2 12.9-95.7 72.8-143.2 68-16.2-1.6-30.1-11.1-43.4-20.4-31.7-22-63.5-44-95.3-66-36.4-25.2-74.6-51-119.7-51.81448-45.1-.78552-99.1 31.61448-118.6 86.61448-15.9 45.1-12.4 106-48.2 128.6-15.6 9.8-32.4 6.7-47.7 3.2-48.4-10.9-96.8-21.8-145.3-32.6-28-6.2-57-12.5-86.8-2.3s-60.4 41.7-64.6 78.6c-5.5 49 34.1 74.7 67.2 93.6s68.1 57.3 50.4 104.7c-17.1 45.8-70.1 58.9-92 102.5-15.3 30.5-9.5 67.8 7.3 89.2s42.3 30.2 67.7 35.1c26.8 5.1 55.5 7.2 76.7 25s31.1 58.4 12.3 88.6c-15.9 25.5-48.6 40.5-50.4 69.8-1.3 20.4 14.6 31.3 28.8 38.7l136.6 71.2c12 6.3 24.8 13.7 28.6 29.2 5.5 22.3-10 48.4-16.8 73.1-18.1 65.8 25.5 115.8 65.3 150.3 28 24.2 58.6 49.3 96.2 45.7 36.7-3.4 72-33.3 108.2-51.2 86.6-42.7 175.9-13.7 242.9 40.1s118.3 130.4 180 192.5c72.8 73.2 160.1 125.5 255.8 153.5 27.7 8.1 65.7 9 84-24.8 20.2-37.4-4.7-79.3 5.7-120.4 13.5-53.1 71.3-68.2 113.4-65.8s95.7 1.4 121.1-47.3c22.4-42.8 4.1-92.1-21.8-120-27.8-30-63.5-48.4-91.9-77.7s-49.4-75.6-37.4-126.2c18.7-80 108.4-132.1 115.6-212.1 4.3-47.5-23.6-81.9-52-106.8-36.5-32.1-77.6-58.4-122.1-78-31.4-13.8-66.3-25.9-82.8-60.6-11.7-24.6-11.9-56.5-13.2-87-1.9-49.1-7.4-99-28.7-136.2s-62-59.1-102.5-40.8c-46.5 21-82.2 87.8-129.3 94.6" fill="#c5fdf9"/><path d="m2692.3 1801.7c-7.9-58.4-21.8-115.9-41.4-171.4-15.1-42.2-33.9-83-62.3-110.4s-67.6-39.3-102.4-21c-45 23.8-76.6 92.7-123.9 98.8-16.2 2.1-31.8-4-46.9-10-35.9-14.2-71.9-28.4-107.9-42.6-41.2-16.3-84.2-32.7-128.3-23.2s-89.3 53.3-95.8 111.4c-5.2 47.5 12.1 106.1-17.7 136.2-13 13.1-30 13.9-45.7 14-49.6.4-99.2.8-148.9 1.3-28.6.3-58.4.8-85 17.5s-49.3 54.4-45 91.2c5.8 49 50.2 65 86.7 75.8s79.3 40.3 72.9 90.5c-6.2 48.5-54.9 73.3-66.3 120.7-8 33.2 6.2 68.2 27.4 85.2 21.2 17.1 48.1 19.8 74 18.8 27.2-1.1 55.7-5.6 80.3 6.9s43.6 49.8 32.1 83.5c-9.7 28.4-38.1 50.5-33.2 79.4 3.4 20.2 21.3 27.1 36.8 31.1 49.7 12.8 99.4 25.6 149.2 38.3 13.1 3.4 27.2 7.7 34.5 22 10.4 20.5 1.3 49.4.3 75-2.7 68.2 51.2 107 97.8 131.5 32.7 17.2 68.3 34.7 104.1 22.6 34.9-11.7 62.6-48.8 93.7-74.4 74.6-61.3 168.1-53.4 245.7-16.3s144.9 100.1 219 146.5c87.5 54.7 184.5 85.8 284 91.3 28.8 1.6 66.1-6.2 76.1-43.2 11.2-41-22.6-76.1-21.9-118.6 1.1-54.8 53.9-82.6 95.5-89.9s93.5-20.5 107.2-73.6c12.1-46.8-17-90.6-48.5-111.9-33.9-22.8-72.9-32.6-107.2-54.8s-65.3-62.3-65.2-114.3c0-82.1 75.5-153.3 64.4-232.9-6.6-47.2-41.6-74.4-74.9-92.2-42.8-23-88.9-39.2-136.6-48.2-33.7-6.3-70.4-10.2-94.4-40.2-17-21.2-24.4-52.3-32.6-81.7-13.1-47.4-29.7-94.7-59-126.1s-73.8-43.4-109.1-16.4c-40.5 31-60.1 104.2-104.4 121.5" fill="#f9f9f7"/></g></g></g></svg>