<svg viewBox="0 0 40 40" xmlns="http://www.w3.org/2000/svg"><g fill="currentColor" id="see-tools"><path d="m24.49 8a5.88 5.88 0 0 0 -4 2 5.9 5.9 0 0 0 -4.06-2 5.74 5.74 0 0 0 -5.69 5.63c0 4.82 4.89 9 9.15 12.18a1 1 0 0 0 .6.19 1 1 0 0 0 .59-.19c4.26-3.14 9.16-7.36 9.16-12.18a5.74 5.74 0 0 0 -5.75-5.63zm-4 15.75c-3.49-2.62-7.75-6.37-7.75-10.12a3.77 3.77 0 0 1 3.64-3.63c1 0 2.06.71 3.29 2.17a1 1 0 0 0 1.53 0c1.24-1.46 2.32-2.17 3.29-2.17a3.78 3.78 0 0 1 3.7 3.63c0 3.75-4.26 7.5-7.75 10.12z"/><path d="m33.57 2.05h-27a4.41 4.41 0 0 0 -4.47 4.37v20.8a4.41 4.41 0 0 0 4.44 4.37h4v4.84a1 1 0 0 0 .55.9l1 .51a1 1 0 0 0 .45.11 1 1 0 0 0 .54-.17l9.47-6.19h11.02a4.41 4.41 0 0 0 4.43-4.37v-20.8a4.41 4.41 0 0 0 -4.43-4.37zm2.43 25.17a2.4 2.4 0 0 1 -2.43 2.37h-11.24a1 1 0 0 0 -.55.17l-9.2 6v-5.17a1 1 0 0 0 -1-1h-5a2.41 2.41 0 0 1 -2.48-2.37v-20.8a2.41 2.41 0 0 1 2.44-2.37h27a2.4 2.4 0 0 1 2.46 2.37z"/></g></svg>
