<svg viewBox="0 0 20 20" xmlns="http://www.w3.org/2000/svg"><g fill="currentColor" id="service-provider"><path d="m18 9h-4.38-.1a1 1 0 0 0 -.55.12l-3.1 1.88a2.3 2.3 0 0 0 -1 2.72h-1.36a2.51 2.51 0 0 0 0 5h5.57a1.06 1.06 0 0 0 .57-.17l2.92-2a1 1 0 0 0 -1.14-1.65l-2.66 1.82h-5.26a.51.51 0 1 1 0-1h3.49a1 1 0 0 0 .63-.23 2.21 2.21 0 0 0 .71-.24l2.19-1.25a1 1 0 0 0 -1-1.73l-2.21 1.27c-.1.06-.32 0-.46-.25s-.09-.48 0-.54l2.9-1.75h4.24a1 1 0 0 0 0-2z"/><path d="m6.44 10.74h.08a1 1 0 0 0 .48-.13l3.1-1.86a2.23 2.23 0 0 0 1-1.49 2.49 2.49 0 0 0 0-1.26h1.39a2.51 2.51 0 0 0 0-5h-5.57a1 1 0 0 0 -.56.17l-2.93 2a1 1 0 1 0 1.14 1.65l2.66-1.82h5.26a.51.51 0 0 1 0 1h-3.49a1 1 0 0 0 -.62.23 1.94 1.94 0 0 0 -.72.25l-2.19 1.29a1 1 0 0 0 1 1.73l2.21-1.27c.09-.06.32 0 .46.25a.63.63 0 0 1 .08.39.21.21 0 0 1 -.11.13l-2.87 1.75h-4.24a1 1 0 0 0 0 2h4.44z"/></g></svg>
