<svg viewBox="0 0 20 20" xmlns="http://www.w3.org/2000/svg"><g id="settings" fill="currentColor"><path d="m10 7a3 3 0 0 0 -3 3 3 3 0 0 0 3 3 3 3 0 1 0 0-6zm0 4a1 1 0 0 1 -1-1 1 1 0 0 1 1-1 1 1 0 1 1 0 2z"/><path d="m18.28 8.15c-.12-.08-.78-.47-1.28-.74l-.22-.52c.1-.33.23-.8.39-1.44a1.52 1.52 0 0 0 -.41-1.45l-.76-.75a1.52 1.52 0 0 0 -1.43-.42s-.84.21-1.44.39l-.53-.22c-.28-.51-.68-1.17-.74-1.28a1.55 1.55 0 0 0 -1.31-.72h-1.1a1.54 1.54 0 0 0 -1.3.71c-.06.09-.47.78-.75 1.29l-.51.22c-.33-.1-.8-.23-1.45-.39a1.53 1.53 0 0 0 -1.44.41l-.75.76a1.52 1.52 0 0 0 -.42 1.43c0 .08.22.86.39 1.44l-.22.53c-.51.28-1.18.68-1.27.74a1.54 1.54 0 0 0 -.73 1.31v1.1a1.55 1.55 0 0 0 .71 1.3c.06 0 .76.46 1.29.74l.22.52c-.1.33-.23.8-.39 1.44a1.54 1.54 0 0 0 .41 1.45l.78.77a1.52 1.52 0 0 0 1.42.42c.07 0 .86-.22 1.45-.39l.51.2c.27.5.67 1.17.74 1.27a1.51 1.51 0 0 0 1.3.74h1.11a1.52 1.52 0 0 0 1.29-.71c.06-.09.47-.78.75-1.29l.52-.22c.33.1.8.23 1.44.39a1.54 1.54 0 0 0 1.45-.42l.77-.78a1.53 1.53 0 0 0 .42-1.42c0-.08-.22-.87-.39-1.44l.2-.52c.51-.27 1.17-.67 1.27-.74a1.53 1.53 0 0 0 .73-1.31v-1.09a1.54 1.54 0 0 0 -.72-1.31zm-1.28 2.14c-.34.21-1 .57-1.21.68a1 1 0 0 0 -.51.53l-.49 1.2a1 1 0 0 0 0 .73c.1.26.28.94.37 1.32l-.4.41c-.93-.24-1.24-.35-1.33-.38a1 1 0 0 0 -.73 0l-1.2.5a1 1 0 0 0 -.53.5c-.11.25-.47.87-.67 1.21h-.59c-.21-.35-.57-1-.68-1.21a1 1 0 0 0 -.52-.51l-1.2-.49a1.09 1.09 0 0 0 -.39-.08.84.84 0 0 0 -.35.07c-.26.09-.94.28-1.32.37l-.41-.4c.24-.9.34-1.22.38-1.33a1 1 0 0 0 0-.73l-.5-1.2a1 1 0 0 0 -.52-.48c-.24-.11-.86-.47-1.2-.67v-.62c.35-.2 1-.56 1.21-.67a1.05 1.05 0 0 0 .51-.53l.49-1.2a1 1 0 0 0 0-.74c-.1-.26-.28-.94-.38-1.32l.41-.41c.93.24 1.24.35 1.33.38a1 1 0 0 0 .73 0l1.2-.5a1 1 0 0 0 .5-.51c.11-.25.47-.87.67-1.21h.58c.2.34.56 1 .67 1.21a1.05 1.05 0 0 0 .53.51l1.2.49a1 1 0 0 0 .74 0c.26-.1.94-.28 1.32-.38l.41.41c-.24.9-.34 1.22-.38 1.33a1 1 0 0 0 0 .73l.5 1.2a1.05 1.05 0 0 0 .56.5c.25.11.86.47 1.2.67z"/></g></svg>
