<svg viewBox="0 0 20 20" xmlns="http://www.w3.org/2000/svg"><path id="share" d="m15.55 12.07a3.47 3.47 0 0 0 -2.63 1.23l-4.92-2.25a3.57 3.57 0 0 0 0-.46 3.31 3.31 0 0 0 0-.59l5.12-3a3.48 3.48 0 1 0 -1-2.49 3.57 3.57 0 0 0 .08.74l-5 3a3.49 3.49 0 1 0 .06 4.64l4.93 2.26a3 3 0 0 0 0 .42 3.48 3.48 0 1 0 3.48-3.48zm0-9a1.48 1.48 0 1 1 -1.48 1.48 1.48 1.48 0 0 1 1.48-1.5zm-11 9a1.48 1.48 0 1 1 1.48-1.48 1.48 1.48 0 0 1 -1.46 1.48zm11 5a1.49 1.49 0 1 1 1.45-1.52 1.49 1.49 0 0 1 -1.45 1.45z" fill="currentColor"/></svg>
