<svg viewBox="0 0 40 40" xmlns="http://www.w3.org/2000/svg"><g fill="currentColor" id="share-tools"><path d="m34.07 24.78h-6.37l-.24-1.49a1 1 0 0 0 -1-.84h-.28v-3.91a1 1 0 0 0 .31-.19l1.25-1.17a1 1 0 0 0 .28-1l-1.25-4.67a1 1 0 0 0 -1-.74h-1.2a1 1 0 0 0 -1 .74l-1.25 4.67a1 1 0 0 0 .28 1l1.25 1.17a1 1 0 0 0 .31.19v3.91h-.16a1 1 0 0 0 -1 .84l-.24 1.49h-4.57s0-.05 0-.08l-.19-2.92h3.09a1 1 0 0 0 .8-1.6 11 11 0 0 0 -8.8-4.4h-1a1 1 0 0 0 -1-1h-3a1 1 0 0 0 -1 1v6a1 1 0 0 0 1 1h3a1 1 0 0 0 1-1h1.75l-.24 2.92s0 .06 0 .08h-7.53a1 1 0 0 0 -1 1v12a1 1 0 0 0 1 1h28a1 1 0 0 0 1-1v-12a1 1 0 0 0 -1-1zm-8.88-11.47.75 2.82-.52.49h-.42l-.52-.49zm-.37 11.14h.8l.05.33h-.91zm-14.75-3.67h-1v-4h1zm2-3h1a9 9 0 0 1 5.65 2h-6.65zm3.76 4h.17l.23 3h-.6zm17.24 5v2h-26v-2zm-26 10v-6h26v6z"/><path d="m5.77 12.4a1 1 0 0 0 0-1.41l-1.91-1.91a1 1 0 0 0 -1.41 0 1 1 0 0 0 0 1.41l1.91 1.91a1 1 0 0 0 1.41 0z"/><path d="m14.81 7.07a.58.58 0 0 0 .19 0 1 1 0 0 0 .8-1.17l-.54-2.77a1 1 0 0 0 -1.17-.79 1 1 0 0 0 -.79 1.16l.53 2.76a1 1 0 0 0 .98.81z"/><path d="m37.68 9.08a1 1 0 0 0 -1.41 0l-1.91 1.92a1 1 0 0 0 0 1.41 1 1 0 0 0 1.41 0l1.91-1.91a1 1 0 0 0 0-1.42z"/><path d="m25.13 7.05a.58.58 0 0 0 .19 0 1 1 0 0 0 1-.81l.53-2.76a1 1 0 0 0 -.85-1.16 1 1 0 0 0 -1.17.79l-.54 2.77a1 1 0 0 0 .84 1.17z"/></g></svg>
