<svg viewBox="0 0 20 20" xmlns="http://www.w3.org/2000/svg"><path d="m16.22 13.29-5.63 2.89h-4.59a.31.31 0 0 1 0-.62h2.8a1 1 0 0 0 .74-.34 2 2 0 0 0 .52-.21l2-1.14a1 1 0 1 0 -1-1.74l-2.06 1.14a.34.34 0 0 1 -.21-.19.3.3 0 0 1 0-.35l2.57-1.55h5.34a1 1 0 0 0 0-2h-5.5-.09-.11v-.65a4.32 4.32 0 0 0 3-1.35 3.92 3.92 0 0 0 1.16-4 1 1 0 0 0 -.2-.39 1 1 0 0 0 -.48-.33l-.11-.05a3.9 3.9 0 0 0 -4 1.17 4.25 4.25 0 0 0 -.35.39 3.25 3.25 0 0 0 -.35-.39 3.91 3.91 0 0 0 -4-1.17 1 1 0 0 0 -.71.67l-.06.12a4 4 0 0 0 1.1 3.98 4.35 4.35 0 0 0 3 1.36v1.71l-1.25.75a2.08 2.08 0 0 0 -1 1.26 2.36 2.36 0 0 0 0 1.29h-.75a2.31 2.31 0 0 0 0 4.62h4.84a.92.92 0 0 0 .46-.11l5.85-3a1 1 0 0 0 .43-1.34 1 1 0 0 0 -1.36-.43zm-2.88-9.12a2.35 2.35 0 0 1 -.76 1.6 2.45 2.45 0 0 1 -1.58.77v-.24a2.48 2.48 0 0 1 .73-1.36 2.45 2.45 0 0 1 1.61-.77zm-5.92 1.59a2.41 2.41 0 0 1 -.78-1.58 2.51 2.51 0 0 1 1.6.76 2.5 2.5 0 0 1 .76 1.45v.13a2.5 2.5 0 0 1 -1.58-.76z" fill="currentColor" id="support-organization" /></svg>
