<svg viewBox="0 0 1400 586" xmlns="http://www.w3.org/2000/svg" xmlns:xlink="http://www.w3.org/1999/xlink"><clipPath id="a"><path d="m197.38-2291.3c55.49-259.66 443.87-550.24 707.49-533.13 38.24 2.4 78.83 9.39 112.94 33 126.63 87.48 60.22 294.68 151 422.8 79 111.45 227.91 106.76 350.26 103.44a1503.87 1503.87 0 0 1 264.93 16.58c40.92 6.09 90.25 21 106 62.69 6.92 18.19 4.8 37.65.52 55-23.08 92.43-104.26 146.45-158.45 219.35s-70.68 202.68 11.76 264.54c83.14 62.34 197 2.15 281.24 62.36 70.6 50.56 76.8 159.53 39.86 227.85s-103.66 110.47-156.93 164.48-95.53 133.81-69.23 216.56c45.54 142.09 262 208.42 264.5 351.59 2.08 115.62-137.9 145.36-204.78 226.82-61.08 73.92-58.65 190.94-105.08 276.79-38 70.46-105.83 115.07-172.26 156.06-56.41 34.69-115.88 69.29-185 71.42-78.95 2.31-159-38-239-57.22-164-39.77-322.87 10-463.92 75.72s-275.51 148.77-430.92 180.1c-85.31 17.24-178.08 17.95-266.71-14.5s-172.48-101.29-212.73-191.81c-82.79-186 38.47-367.07 51.53-557.74 2-31 1-63.44-11.85-93.91-27.22-64.83-97.46-99.39-160.85-121.33-128.77-44.78-260.43-68.87-389.95-110.11s-260.13-102.26-360.33-205-163.89-255.1-132.42-382.16c51.55-208 315.64-261.93 389.36-459.52 24.06-64.6 25.22-138.78 37.91-208.06 12.91-69.44 41.87-139.61 102.31-166.94 140.17-63.71 341 136.39 473.17 58.91 57.58-33.55 76.84-107.94 100.95-172.91s66.7-132.79 136.64-131.52c53.45.95 102.87 42 153.7 68.12s121.67 31.35 140.07-18.19"/></clipPath><clipPath id="b"><path d="m748 292h657v96h-657z"/></clipPath><g clip-path="url(#a)"><path d="m0 0h1400v586h-1400z" fill="#edf5f3"/></g><g fill="#e3eae8"><circle cx="975" cy="4" r="4"/><circle cx="784" cy="4" r="4"/><circle cx="975" cy="68" r="4"/><circle cx="784" cy="68" r="4"/><circle cx="975" cy="36" r="4"/><circle cx="784" cy="36" r="4"/><circle cx="1078" cy="4" r="4"/><circle cx="880" cy="4" r="4"/><circle cx="1078" cy="36" r="4"/><circle cx="880" cy="36" r="4"/><circle cx="943" cy="4" r="4"/><circle cx="752" cy="4" r="4"/><circle cx="943" cy="68" r="4"/><circle cx="752" cy="68" r="4"/><circle cx="943" cy="36" r="4"/><circle cx="752" cy="36" r="4"/><circle cx="943" cy="100" r="4"/><circle cx="752" cy="100" r="4"/><circle cx="1044" cy="4" r="4"/><circle cx="848" cy="4" r="4"/><circle cx="1044" cy="68" r="4"/><circle cx="848" cy="68" r="4"/><circle cx="1044" cy="36" r="4"/><circle cx="848" cy="36" r="4"/><circle cx="1147" cy="4" r="4"/><circle cx="911" cy="4" r="4"/><circle cx="911" cy="68" r="4"/><circle cx="911" cy="36" r="4"/><circle cx="911" cy="100" r="4"/><circle cx="1008" cy="4" r="4"/><circle cx="816" cy="4" r="4"/><circle cx="1008" cy="68" r="4"/><circle cx="816" cy="68" r="4"/><circle cx="1008" cy="36" r="4"/><circle cx="816" cy="36" r="4"/><circle cx="1113" cy="4" r="4"/><circle cx="975" cy="100" r="4"/><circle cx="784" cy="100" r="4"/><circle cx="1147" cy="36" r="4"/><circle cx="1113" cy="36" r="4"/><circle cx="1078" cy="68" r="4"/><circle cx="880" cy="68" r="4"/><circle cx="975" cy="228" r="4"/><circle cx="784" cy="228" r="4"/><circle cx="1078" cy="228" r="4"/><circle cx="880" cy="228" r="4"/><circle cx="943" cy="228" r="4"/><circle cx="752" cy="228" r="4"/><circle cx="1044" cy="228" r="4"/><circle cx="848" cy="228" r="4"/><circle cx="1147" cy="228" r="4"/><circle cx="911" cy="228" r="4"/><circle cx="1008" cy="228" r="4"/><circle cx="816" cy="228" r="4"/><circle cx="1113" cy="228" r="4"/><circle cx="975" cy="262" r="4"/><circle cx="784" cy="262" r="4"/><circle cx="1078" cy="262" r="4"/><circle cx="880" cy="262" r="4"/><circle cx="943" cy="262" r="4"/><circle cx="752" cy="262" r="4"/><circle cx="1044" cy="262" r="4"/><circle cx="848" cy="262" r="4"/><circle cx="1147" cy="262" r="4"/><circle cx="911" cy="262" r="4"/><circle cx="1008" cy="262" r="4"/><circle cx="816" cy="262" r="4"/><circle cx="1113" cy="262" r="4"/><circle cx="975" cy="132" r="4"/><circle cx="784" cy="132" r="4"/><circle cx="975" cy="196" r="4"/><circle cx="784" cy="196" r="4"/><circle cx="975" cy="164" r="4"/><circle cx="784" cy="164" r="4"/><circle cx="1078" cy="132" r="4"/><circle cx="880" cy="132" r="4"/><circle cx="1078" cy="196" r="4"/><circle cx="880" cy="196" r="4"/><circle cx="1078" cy="164" r="4"/><circle cx="880" cy="164" r="4"/><circle cx="1078" cy="100" r="4"/><circle cx="880" cy="100" r="4"/><circle cx="943" cy="132" r="4"/><circle cx="752" cy="132" r="4"/><circle cx="943" cy="196" r="4"/><circle cx="752" cy="196" r="4"/><circle cx="943" cy="164" r="4"/><circle cx="752" cy="164" r="4"/><circle cx="1044" cy="132" r="4"/><circle cx="848" cy="132" r="4"/><circle cx="1044" cy="196" r="4"/><circle cx="848" cy="196" r="4"/><circle cx="1044" cy="164" r="4"/><circle cx="848" cy="164" r="4"/><circle cx="1044" cy="100" r="4"/><circle cx="848" cy="100" r="4"/><circle cx="1147" cy="132" r="4"/><circle cx="1147" cy="68" r="4"/><circle cx="1147" cy="196" r="4"/><circle cx="1147" cy="164" r="4"/><circle cx="1147" cy="100" r="4"/><circle cx="911" cy="132" r="4"/><circle cx="911" cy="196" r="4"/><circle cx="911" cy="164" r="4"/><circle cx="1008" cy="132" r="4"/><circle cx="816" cy="132" r="4"/><circle cx="1008" cy="196" r="4"/><circle cx="816" cy="196" r="4"/><circle cx="1008" cy="164" r="4"/><circle cx="816" cy="164" r="4"/><circle cx="1008" cy="100" r="4"/><circle cx="816" cy="100" r="4"/><circle cx="1113" cy="132" r="4"/><circle cx="1113" cy="68" r="4"/><circle cx="1113" cy="196" r="4"/><circle cx="1113" cy="164" r="4"/><circle cx="1113" cy="100" r="4"/><circle cx="1183" cy="228" r="4"/><circle cx="1183" cy="262" r="4"/><circle cx="1183" cy="132" r="4"/><circle cx="1183" cy="68" r="4"/><circle cx="1183" cy="36" r="4"/><circle cx="1183" cy="4" r="4"/><circle cx="1183" cy="196" r="4"/><circle cx="1183" cy="164" r="4"/><circle cx="1183" cy="100" r="4"/><circle cx="1218" cy="228" r="4"/><circle cx="1218" cy="262" r="4"/><circle cx="1218" cy="132" r="4"/><circle cx="1218" cy="68" r="4"/><circle cx="1218" cy="36" r="4"/><circle cx="1218" cy="4" r="4"/><circle cx="1218" cy="196" r="4"/><circle cx="1218" cy="164" r="4"/><circle cx="1218" cy="100" r="4"/><circle cx="1251" cy="228" r="4"/><circle cx="1251" cy="262" r="4"/><circle cx="1251" cy="132" r="4"/><circle cx="1251" cy="68" r="4"/><circle cx="1251" cy="36" r="4"/><circle cx="1251" cy="4" r="4"/><circle cx="1251" cy="196" r="4"/><circle cx="1251" cy="164" r="4"/><circle cx="1251" cy="100" r="4"/><circle cx="1283" cy="228" r="4"/><circle cx="1283" cy="262" r="4"/><circle cx="1283" cy="132" r="4"/><circle cx="1283" cy="68" r="4"/><circle cx="1283" cy="36" r="4"/><circle cx="1283" cy="4" r="4"/><circle cx="1283" cy="196" r="4"/><circle cx="1283" cy="164" r="4"/><circle cx="1283" cy="100" r="4"/><circle cx="1315" cy="228" r="4"/><circle cx="1315" cy="262" r="4"/><circle cx="1315" cy="132" r="4"/><circle cx="1315" cy="68" r="4"/><circle cx="1315" cy="36" r="4"/><circle cx="1315" cy="4" r="4"/><circle cx="1315" cy="196" r="4"/><circle cx="1315" cy="164" r="4"/><circle cx="1315" cy="100" r="4"/><circle cx="1347" cy="228" r="4"/><circle cx="1347" cy="262" r="4"/><circle cx="1347" cy="132" r="4"/><circle cx="1347" cy="68" r="4"/><circle cx="1347" cy="36" r="4"/><circle cx="1347" cy="4" r="4"/><circle cx="1347" cy="196" r="4"/><circle cx="1347" cy="164" r="4"/><circle cx="1347" cy="100" r="4"/><circle cx="1379" cy="228" r="4"/><circle cx="1379" cy="262" r="4"/><g clip-path="url(#b)"><circle cx="816" cy="296" r="4"/><circle cx="912" cy="296" r="4"/><circle cx="784" cy="296" r="4"/><circle cx="880" cy="296" r="4"/><circle cx="976" cy="296" r="4"/><circle cx="752" cy="296" r="4"/><circle cx="848" cy="296" r="4"/><circle cx="944" cy="296" r="4"/><circle cx="1008" cy="296" r="4"/><circle cx="1043" cy="296" r="4"/><circle cx="1078" cy="296" r="4"/><circle cx="1113" cy="296" r="4"/><circle cx="1148" cy="296" r="4"/><circle cx="1183" cy="296" r="4"/><circle cx="1218" cy="296" r="4"/><circle cx="1315" cy="296" r="4"/><circle cx="1283" cy="296" r="4"/><circle cx="1379" cy="296" r="4"/><circle cx="1251" cy="296" r="4"/><circle cx="1347" cy="296" r="4"/><circle cx="816" cy="332" r="4"/><circle cx="912" cy="332" r="4"/><circle cx="784" cy="332" r="4"/><circle cx="880" cy="332" r="4"/><circle cx="976" cy="332" r="4"/><circle cx="752" cy="332" r="4"/><circle cx="848" cy="332" r="4"/><circle cx="944" cy="332" r="4"/><circle cx="1008" cy="332" r="4"/><circle cx="1043" cy="332" r="4"/><circle cx="1078" cy="332" r="4"/><circle cx="1113" cy="332" r="4"/><circle cx="1148" cy="332" r="4"/><circle cx="1183" cy="332" r="4"/><circle cx="1218" cy="332" r="4"/><circle cx="1315" cy="332" r="4"/><circle cx="1283" cy="332" r="4"/><circle cx="1379" cy="332" r="4"/><circle cx="1251" cy="332" r="4"/><circle cx="1347" cy="332" r="4"/><circle cx="816" cy="368" r="4"/><circle cx="912" cy="368" r="4"/><circle cx="784" cy="368" r="4"/><circle cx="880" cy="368" r="4"/><circle cx="976" cy="368" r="4"/><circle cx="752" cy="368" r="4"/><circle cx="848" cy="368" r="4"/><circle cx="944" cy="368" r="4"/><circle cx="1008" cy="368" r="4"/><circle cx="1043" cy="368" r="4"/><circle cx="1078" cy="368" r="4"/><circle cx="1113" cy="368" r="4"/><circle cx="1148" cy="368" r="4"/><circle cx="1183" cy="368" r="4"/><circle cx="1218" cy="368" r="4"/><circle cx="1315" cy="368" r="4"/><circle cx="1283" cy="368" r="4"/><circle cx="1379" cy="368" r="4"/><circle cx="1251" cy="368" r="4"/><circle cx="1347" cy="368" r="4"/></g><circle cx="1379" cy="132" r="4"/><circle cx="1379" cy="68" r="4"/><circle cx="1379" cy="36" r="4"/><circle cx="1379" cy="4" r="4"/><circle cx="1379" cy="196" r="4"/><circle cx="1379" cy="164" r="4"/><circle cx="1379" cy="100" r="4"/></g></svg>