<svg viewBox="0 0 32 32" xmlns="http://www.w3.org/2000/svg"><path d="m25.78 10.25v-4.89a1.7 1.7 0 1 0 -2.4-2.18h-1.5a1.7 1.7 0 0 0 -3.25.69h-.73c-5.77 0-8.15 1.7-10.38 4.38a1.63 1.63 0 0 0 -.45-.07 1.71 1.71 0 1 0 0 3.41 1.68 1.68 0 0 0 1.27-.59h5.1l-.85 16a2.77 2.77 0 0 0 .75 2.07 2.81 2.81 0 0 0 2 .88h.5a2.79 2.79 0 0 0 2.79-2.95l-.86-16h1a1.63 1.63 0 0 0 -.16.7 1.7 1.7 0 0 0 3.31.58h1.4a1.7 1.7 0 1 0 2.45-2.05zm-10 1.12.22 3.89h-.82l.21-3.89zm.63 16.38a.79.79 0 0 1 -.58.25h-.5a.78.78 0 0 1 -.58-.25.81.81 0 0 1 -.22-.59l.53-9.9h1l.53 9.9a.76.76 0 0 1 -.13.59zm5.12-17.45v-5.12h2.25v5.12zm-3.63-4.43h1.63v3.13h-10c1.75-2 3.7-3.13 8.37-3.13z" fill="currentColor" id="tools" /></svg>
